<mxfile host="Electron" modified="2024-05-19T05:17:13.283Z" agent="Mozilla/5.0 (Windows NT 10.0; Win64; x64) AppleWebKit/537.36 (KHTML, like Gecko) draw.io/24.4.0 Chrome/120.0.6099.109 Electron/28.1.0 Safari/537.36" etag="NhqWELwzktePeAAbEF2V" version="24.4.0" type="device" pages="11">
  <diagram name="Use-Case Diagram" id="KcRibwasmvVvdM6dy5NE">
    <mxGraphModel dx="1050" dy="669" grid="1" gridSize="10" guides="1" tooltips="1" connect="1" arrows="1" fold="1" page="1" pageScale="1" pageWidth="4681" pageHeight="3300" math="0" shadow="0">
      <root>
        <mxCell id="0" />
        <mxCell id="1" parent="0" />
        <mxCell id="0DPw3A4Dp9pLK03k4MNu-14" value="Actor" style="shape=umlActor;verticalLabelPosition=bottom;verticalAlign=top;html=1;outlineConnect=0;" parent="1" vertex="1">
          <mxGeometry x="940" y="690" width="30" height="60" as="geometry" />
        </mxCell>
        <mxCell id="0DPw3A4Dp9pLK03k4MNu-15" value="Register" style="ellipse;whiteSpace=wrap;html=1;" parent="1" vertex="1">
          <mxGeometry x="1197.5" y="530" width="120" height="80" as="geometry" />
        </mxCell>
        <mxCell id="0DPw3A4Dp9pLK03k4MNu-17" value="" style="endArrow=none;html=1;rounded=0;entryX=0;entryY=1;entryDx=0;entryDy=0;" parent="1" source="0DPw3A4Dp9pLK03k4MNu-14" target="0DPw3A4Dp9pLK03k4MNu-15" edge="1">
          <mxGeometry width="50" height="50" relative="1" as="geometry">
            <mxPoint x="1250" y="770" as="sourcePoint" />
            <mxPoint x="1300" y="720" as="targetPoint" />
          </mxGeometry>
        </mxCell>
        <mxCell id="0DPw3A4Dp9pLK03k4MNu-18" value="" style="endArrow=none;html=1;rounded=0;entryX=0;entryY=0.5;entryDx=0;entryDy=0;" parent="1" source="0DPw3A4Dp9pLK03k4MNu-14" target="0DPw3A4Dp9pLK03k4MNu-23" edge="1">
          <mxGeometry width="50" height="50" relative="1" as="geometry">
            <mxPoint x="980" y="764" as="sourcePoint" />
            <mxPoint x="1150" y="750" as="targetPoint" />
          </mxGeometry>
        </mxCell>
        <mxCell id="0DPw3A4Dp9pLK03k4MNu-19" value="Extends" style="endArrow=block;endSize=16;endFill=0;html=1;rounded=0;exitX=0.5;exitY=0;exitDx=0;exitDy=0;entryX=0.5;entryY=1;entryDx=0;entryDy=0;" parent="1" source="0DPw3A4Dp9pLK03k4MNu-21" target="0DPw3A4Dp9pLK03k4MNu-15" edge="1">
          <mxGeometry width="160" relative="1" as="geometry">
            <mxPoint x="1210" y="710" as="sourcePoint" />
            <mxPoint x="1360" y="750" as="targetPoint" />
          </mxGeometry>
        </mxCell>
        <mxCell id="0DPw3A4Dp9pLK03k4MNu-20" value="" style="shape=ellipse;container=1;horizontal=1;horizontalStack=0;resizeParent=1;resizeParentMax=0;resizeLast=0;html=1;dashed=0;collapsible=0;" parent="1" vertex="1">
          <mxGeometry x="1135" y="750" width="251.13" height="210" as="geometry" />
        </mxCell>
        <mxCell id="0DPw3A4Dp9pLK03k4MNu-21" value="Login" style="html=1;strokeColor=none;fillColor=none;align=center;verticalAlign=middle;rotatable=0;whiteSpace=wrap;" parent="0DPw3A4Dp9pLK03k4MNu-20" vertex="1">
          <mxGeometry width="245.00000000000003" height="52.5" as="geometry" />
        </mxCell>
        <mxCell id="0DPw3A4Dp9pLK03k4MNu-22" value="" style="line;strokeWidth=1;fillColor=none;rotatable=0;labelPosition=right;points=[];portConstraint=eastwest;dashed=0;resizeWidth=1;" parent="0DPw3A4Dp9pLK03k4MNu-20" vertex="1">
          <mxGeometry x="12.25" y="52.5" width="220.5" height="17.5" as="geometry" />
        </mxCell>
        <mxCell id="0DPw3A4Dp9pLK03k4MNu-23" value="extension points" style="text;html=1;align=center;verticalAlign=middle;rotatable=0;fillColor=none;strokeColor=none;whiteSpace=wrap;" parent="0DPw3A4Dp9pLK03k4MNu-20" vertex="1">
          <mxGeometry y="60" width="245.00000000000003" height="52.5" as="geometry" />
        </mxCell>
        <mxCell id="0DPw3A4Dp9pLK03k4MNu-24" value="Chưa có tài khoản" style="text;html=1;align=left;verticalAlign=middle;rotatable=0;spacingLeft=25;fillColor=none;strokeColor=none;whiteSpace=wrap;" parent="0DPw3A4Dp9pLK03k4MNu-20" vertex="1">
          <mxGeometry x="51.120000000000005" y="91.88" width="148.88" height="52.5" as="geometry" />
        </mxCell>
        <mxCell id="0DPw3A4Dp9pLK03k4MNu-29" value="Quên mật khẩu" style="text;html=1;align=left;verticalAlign=middle;rotatable=0;spacingLeft=25;fillColor=none;strokeColor=none;whiteSpace=wrap;" parent="0DPw3A4Dp9pLK03k4MNu-20" vertex="1">
          <mxGeometry x="59.19" y="120.01" width="132.75" height="52.5" as="geometry" />
        </mxCell>
        <mxCell id="0DPw3A4Dp9pLK03k4MNu-32" value="Thay đổi thông tin người dùng" style="text;html=1;align=left;verticalAlign=middle;rotatable=0;spacingLeft=25;fillColor=none;strokeColor=none;whiteSpace=wrap;" parent="0DPw3A4Dp9pLK03k4MNu-20" vertex="1">
          <mxGeometry x="58.06" y="160" width="128.87" height="40" as="geometry" />
        </mxCell>
        <mxCell id="0DPw3A4Dp9pLK03k4MNu-30" value="Extends" style="endArrow=block;endSize=16;endFill=0;html=1;rounded=0;exitX=1;exitY=0.5;exitDx=0;exitDy=0;entryX=0;entryY=1;entryDx=0;entryDy=0;" parent="1" source="0DPw3A4Dp9pLK03k4MNu-23" target="0DPw3A4Dp9pLK03k4MNu-31" edge="1">
          <mxGeometry width="160" relative="1" as="geometry">
            <mxPoint x="1410" y="940" as="sourcePoint" />
            <mxPoint x="1410" y="800" as="targetPoint" />
          </mxGeometry>
        </mxCell>
        <mxCell id="0DPw3A4Dp9pLK03k4MNu-31" value="Thay đổi mật khẩu" style="ellipse;whiteSpace=wrap;html=1;" parent="1" vertex="1">
          <mxGeometry x="1540" y="680" width="140" height="70" as="geometry" />
        </mxCell>
        <mxCell id="0DPw3A4Dp9pLK03k4MNu-33" value="Extends" style="endArrow=block;endSize=16;endFill=0;html=1;rounded=0;entryX=0;entryY=0.5;entryDx=0;entryDy=0;" parent="1" source="0DPw3A4Dp9pLK03k4MNu-20" target="0DPw3A4Dp9pLK03k4MNu-34" edge="1">
          <mxGeometry width="160" relative="1" as="geometry">
            <mxPoint x="1400" y="966" as="sourcePoint" />
            <mxPoint x="1430" y="930" as="targetPoint" />
          </mxGeometry>
        </mxCell>
        <mxCell id="0DPw3A4Dp9pLK03k4MNu-34" value="Cập nhật thông tin" style="ellipse;whiteSpace=wrap;html=1;" parent="1" vertex="1">
          <mxGeometry x="1570" y="890" width="140" height="70" as="geometry" />
        </mxCell>
        <mxCell id="0DPw3A4Dp9pLK03k4MNu-36" value="" style="shape=ellipse;container=1;horizontal=1;horizontalStack=0;resizeParent=1;resizeParentMax=0;resizeLast=0;html=1;dashed=0;collapsible=0;" parent="1" vertex="1">
          <mxGeometry x="650" y="842" width="180" height="120" as="geometry" />
        </mxCell>
        <mxCell id="0DPw3A4Dp9pLK03k4MNu-37" value="Flashcard" style="html=1;strokeColor=none;fillColor=none;align=center;verticalAlign=middle;rotatable=0;whiteSpace=wrap;" parent="0DPw3A4Dp9pLK03k4MNu-36" vertex="1">
          <mxGeometry width="180" height="30" as="geometry" />
        </mxCell>
        <mxCell id="0DPw3A4Dp9pLK03k4MNu-38" value="" style="line;strokeWidth=1;fillColor=none;rotatable=0;labelPosition=right;points=[];portConstraint=eastwest;dashed=0;resizeWidth=1;" parent="0DPw3A4Dp9pLK03k4MNu-36" vertex="1">
          <mxGeometry x="9" y="30" width="162" height="10" as="geometry" />
        </mxCell>
        <mxCell id="0DPw3A4Dp9pLK03k4MNu-39" value="extension points" style="text;html=1;align=center;verticalAlign=middle;rotatable=0;fillColor=none;strokeColor=none;whiteSpace=wrap;" parent="0DPw3A4Dp9pLK03k4MNu-36" vertex="1">
          <mxGeometry y="40" width="180" height="30" as="geometry" />
        </mxCell>
        <mxCell id="0DPw3A4Dp9pLK03k4MNu-40" value="Có bộ từ vựng" style="text;html=1;align=left;verticalAlign=middle;rotatable=0;spacingLeft=25;fillColor=none;strokeColor=none;whiteSpace=wrap;" parent="0DPw3A4Dp9pLK03k4MNu-36" vertex="1">
          <mxGeometry x="20" y="70" width="130" height="30" as="geometry" />
        </mxCell>
        <mxCell id="0DPw3A4Dp9pLK03k4MNu-41" value="" style="endArrow=none;html=1;rounded=0;entryX=0.5;entryY=0;entryDx=0;entryDy=0;" parent="1" source="0DPw3A4Dp9pLK03k4MNu-14" target="0DPw3A4Dp9pLK03k4MNu-37" edge="1">
          <mxGeometry width="50" height="50" relative="1" as="geometry">
            <mxPoint x="810" y="810" as="sourcePoint" />
            <mxPoint x="975" y="916" as="targetPoint" />
          </mxGeometry>
        </mxCell>
        <mxCell id="0DPw3A4Dp9pLK03k4MNu-42" value="Học từ vựng" style="ellipse;whiteSpace=wrap;html=1;" parent="1" vertex="1">
          <mxGeometry x="360" y="810" width="140" height="70" as="geometry" />
        </mxCell>
        <mxCell id="0DPw3A4Dp9pLK03k4MNu-43" value="Extends" style="endArrow=block;endSize=16;endFill=0;html=1;rounded=0;exitX=0.036;exitY=0.71;exitDx=0;exitDy=0;entryX=1;entryY=0.5;entryDx=0;entryDy=0;exitPerimeter=0;" parent="1" source="0DPw3A4Dp9pLK03k4MNu-36" target="0DPw3A4Dp9pLK03k4MNu-42" edge="1">
          <mxGeometry width="160" relative="1" as="geometry">
            <mxPoint x="520" y="830" as="sourcePoint" />
            <mxPoint x="520" y="690" as="targetPoint" />
          </mxGeometry>
        </mxCell>
        <mxCell id="0DPw3A4Dp9pLK03k4MNu-44" value="Thêm bộ từ vựng" style="ellipse;whiteSpace=wrap;html=1;" parent="1" vertex="1">
          <mxGeometry x="360" y="1010" width="140" height="70" as="geometry" />
        </mxCell>
        <mxCell id="0DPw3A4Dp9pLK03k4MNu-45" value="Chỉnh sửa bộ từ vựng" style="ellipse;whiteSpace=wrap;html=1;" parent="1" vertex="1">
          <mxGeometry x="530" y="1150" width="140" height="70" as="geometry" />
        </mxCell>
        <mxCell id="0DPw3A4Dp9pLK03k4MNu-46" value="Extends" style="endArrow=block;endSize=16;endFill=0;html=1;rounded=0;exitX=0;exitY=0.5;exitDx=0;exitDy=0;entryX=1;entryY=1;entryDx=0;entryDy=0;" parent="1" source="0DPw3A4Dp9pLK03k4MNu-44" target="0DPw3A4Dp9pLK03k4MNu-47" edge="1">
          <mxGeometry width="160" relative="1" as="geometry">
            <mxPoint x="346" y="1050" as="sourcePoint" />
            <mxPoint x="280" y="1020" as="targetPoint" />
          </mxGeometry>
        </mxCell>
        <mxCell id="0DPw3A4Dp9pLK03k4MNu-47" value="Thêm từ vựng" style="ellipse;whiteSpace=wrap;html=1;" parent="1" vertex="1">
          <mxGeometry x="110" y="950" width="140" height="70" as="geometry" />
        </mxCell>
        <mxCell id="0DPw3A4Dp9pLK03k4MNu-48" value="Extends" style="endArrow=block;endSize=16;endFill=0;html=1;rounded=0;exitX=0.124;exitY=0.897;exitDx=0;exitDy=0;entryX=1;entryY=0.5;entryDx=0;entryDy=0;exitPerimeter=0;" parent="1" source="0DPw3A4Dp9pLK03k4MNu-36" target="0DPw3A4Dp9pLK03k4MNu-44" edge="1">
          <mxGeometry width="160" relative="1" as="geometry">
            <mxPoint x="646" y="1072" as="sourcePoint" />
            <mxPoint x="490" y="990" as="targetPoint" />
          </mxGeometry>
        </mxCell>
        <mxCell id="0DPw3A4Dp9pLK03k4MNu-49" value="Extends" style="endArrow=block;endSize=16;endFill=0;html=1;rounded=0;exitX=0.5;exitY=1;exitDx=0;exitDy=0;entryX=1;entryY=0;entryDx=0;entryDy=0;" parent="1" source="0DPw3A4Dp9pLK03k4MNu-36" target="0DPw3A4Dp9pLK03k4MNu-45" edge="1">
          <mxGeometry width="160" relative="1" as="geometry">
            <mxPoint x="682" y="960" as="sourcePoint" />
            <mxPoint x="510" y="1055" as="targetPoint" />
          </mxGeometry>
        </mxCell>
        <mxCell id="0DPw3A4Dp9pLK03k4MNu-50" value="&amp;lt;&amp;lt;include&amp;gt;&amp;gt;" style="html=1;verticalAlign=bottom;labelBackgroundColor=none;endArrow=open;endFill=0;dashed=1;rounded=0;exitX=0;exitY=0.5;exitDx=0;exitDy=0;entryX=1;entryY=0;entryDx=0;entryDy=0;" parent="1" source="0DPw3A4Dp9pLK03k4MNu-45" target="0DPw3A4Dp9pLK03k4MNu-51" edge="1">
          <mxGeometry x="0.001" width="160" relative="1" as="geometry">
            <mxPoint x="660" y="1230" as="sourcePoint" />
            <mxPoint x="390" y="1250" as="targetPoint" />
            <mxPoint as="offset" />
          </mxGeometry>
        </mxCell>
        <mxCell id="0DPw3A4Dp9pLK03k4MNu-51" value="Chỉnh sửa từ" style="ellipse;whiteSpace=wrap;html=1;" parent="1" vertex="1">
          <mxGeometry x="260" y="1240" width="140" height="70" as="geometry" />
        </mxCell>
        <mxCell id="0DPw3A4Dp9pLK03k4MNu-52" value="Chỉnh sửa thông tin bộ từ vựng" style="ellipse;whiteSpace=wrap;html=1;" parent="1" vertex="1">
          <mxGeometry x="490" y="1340" width="140" height="70" as="geometry" />
        </mxCell>
        <mxCell id="0DPw3A4Dp9pLK03k4MNu-53" value="&amp;lt;&amp;lt;include&amp;gt;&amp;gt;" style="html=1;verticalAlign=bottom;labelBackgroundColor=none;endArrow=open;endFill=0;dashed=1;rounded=0;exitX=0.5;exitY=1;exitDx=0;exitDy=0;entryX=0.5;entryY=0;entryDx=0;entryDy=0;" parent="1" source="0DPw3A4Dp9pLK03k4MNu-45" target="0DPw3A4Dp9pLK03k4MNu-52" edge="1">
          <mxGeometry width="160" relative="1" as="geometry">
            <mxPoint x="620" y="1290" as="sourcePoint" />
            <mxPoint x="480" y="1355" as="targetPoint" />
          </mxGeometry>
        </mxCell>
        <mxCell id="cG2KfL0xKuCpc7DWFZHV-1" value="" style="shape=ellipse;container=1;horizontal=1;horizontalStack=0;resizeParent=1;resizeParentMax=0;resizeLast=0;html=1;dashed=0;collapsible=0;" parent="1" vertex="1">
          <mxGeometry x="540" y="540" width="180" height="120" as="geometry" />
        </mxCell>
        <mxCell id="cG2KfL0xKuCpc7DWFZHV-2" value="Carolina" style="html=1;strokeColor=none;fillColor=none;align=center;verticalAlign=middle;rotatable=0;whiteSpace=wrap;" parent="cG2KfL0xKuCpc7DWFZHV-1" vertex="1">
          <mxGeometry width="180" height="30" as="geometry" />
        </mxCell>
        <mxCell id="cG2KfL0xKuCpc7DWFZHV-3" value="" style="line;strokeWidth=1;fillColor=none;rotatable=0;labelPosition=right;points=[];portConstraint=eastwest;dashed=0;resizeWidth=1;" parent="cG2KfL0xKuCpc7DWFZHV-1" vertex="1">
          <mxGeometry x="9" y="30" width="162" height="10" as="geometry" />
        </mxCell>
        <mxCell id="cG2KfL0xKuCpc7DWFZHV-4" value="extension points" style="text;html=1;align=center;verticalAlign=middle;rotatable=0;fillColor=none;strokeColor=none;whiteSpace=wrap;" parent="cG2KfL0xKuCpc7DWFZHV-1" vertex="1">
          <mxGeometry y="40" width="180" height="30" as="geometry" />
        </mxCell>
        <mxCell id="cG2KfL0xKuCpc7DWFZHV-10" value="Đoạn văn cần chỉnh sửa" style="text;html=1;align=left;verticalAlign=middle;rotatable=0;spacingLeft=25;fillColor=none;strokeColor=none;whiteSpace=wrap;" parent="cG2KfL0xKuCpc7DWFZHV-1" vertex="1">
          <mxGeometry x="25" y="70" width="130" height="30" as="geometry" />
        </mxCell>
        <mxCell id="cG2KfL0xKuCpc7DWFZHV-6" value="" style="endArrow=none;html=1;rounded=0;exitX=0.5;exitY=0.5;exitDx=0;exitDy=0;exitPerimeter=0;" parent="1" source="0DPw3A4Dp9pLK03k4MNu-14" target="cG2KfL0xKuCpc7DWFZHV-1" edge="1">
          <mxGeometry width="50" height="50" relative="1" as="geometry">
            <mxPoint x="890" y="620" as="sourcePoint" />
            <mxPoint x="690" y="733" as="targetPoint" />
          </mxGeometry>
        </mxCell>
        <mxCell id="cG2KfL0xKuCpc7DWFZHV-9" value="Đánh giá đoạn văn của người dùng" style="ellipse;whiteSpace=wrap;html=1;" parent="1" vertex="1">
          <mxGeometry x="360" y="430" width="140" height="70" as="geometry" />
        </mxCell>
        <mxCell id="cG2KfL0xKuCpc7DWFZHV-17" value="Chẩm điểm đoạn văn người dùng&amp;nbsp;" style="ellipse;whiteSpace=wrap;html=1;" parent="1" vertex="1">
          <mxGeometry x="110" y="240" width="140" height="70" as="geometry" />
        </mxCell>
        <mxCell id="cG2KfL0xKuCpc7DWFZHV-18" value="Chỉ ra lỗi của người dùng&amp;nbsp;" style="ellipse;whiteSpace=wrap;html=1;" parent="1" vertex="1">
          <mxGeometry x="110" y="370" width="140" height="70" as="geometry" />
        </mxCell>
        <mxCell id="cG2KfL0xKuCpc7DWFZHV-19" value="Đoạn văn được chỉnh sửa của người dùng" style="ellipse;whiteSpace=wrap;html=1;" parent="1" vertex="1">
          <mxGeometry x="110" y="500" width="140" height="70" as="geometry" />
        </mxCell>
        <mxCell id="cG2KfL0xKuCpc7DWFZHV-20" value="Extends" style="endArrow=block;endSize=16;endFill=0;html=1;rounded=0;entryX=1;entryY=1;entryDx=0;entryDy=0;" parent="1" source="cG2KfL0xKuCpc7DWFZHV-2" target="cG2KfL0xKuCpc7DWFZHV-9" edge="1">
          <mxGeometry width="160" relative="1" as="geometry">
            <mxPoint x="556" y="690" as="sourcePoint" />
            <mxPoint x="400" y="608" as="targetPoint" />
          </mxGeometry>
        </mxCell>
        <mxCell id="cG2KfL0xKuCpc7DWFZHV-21" value="&amp;lt;&amp;lt;include&amp;gt;&amp;gt;" style="html=1;verticalAlign=bottom;labelBackgroundColor=none;endArrow=open;endFill=0;dashed=1;rounded=0;exitX=0.5;exitY=0;exitDx=0;exitDy=0;entryX=1;entryY=0.5;entryDx=0;entryDy=0;" parent="1" source="cG2KfL0xKuCpc7DWFZHV-9" target="cG2KfL0xKuCpc7DWFZHV-17" edge="1">
          <mxGeometry x="0.001" width="160" relative="1" as="geometry">
            <mxPoint x="411" y="815" as="sourcePoint" />
            <mxPoint x="260" y="880" as="targetPoint" />
            <mxPoint as="offset" />
          </mxGeometry>
        </mxCell>
        <mxCell id="cG2KfL0xKuCpc7DWFZHV-22" value="&amp;lt;&amp;lt;include&amp;gt;&amp;gt;" style="html=1;verticalAlign=bottom;labelBackgroundColor=none;endArrow=open;endFill=0;dashed=1;rounded=0;exitX=0;exitY=0.5;exitDx=0;exitDy=0;entryX=1;entryY=0.5;entryDx=0;entryDy=0;" parent="1" source="cG2KfL0xKuCpc7DWFZHV-9" target="cG2KfL0xKuCpc7DWFZHV-18" edge="1">
          <mxGeometry x="0.001" width="160" relative="1" as="geometry">
            <mxPoint x="440" y="440" as="sourcePoint" />
            <mxPoint x="330" y="295" as="targetPoint" />
            <mxPoint as="offset" />
          </mxGeometry>
        </mxCell>
        <mxCell id="cG2KfL0xKuCpc7DWFZHV-23" value="&amp;lt;&amp;lt;include&amp;gt;&amp;gt;" style="html=1;verticalAlign=bottom;labelBackgroundColor=none;endArrow=open;endFill=0;dashed=1;rounded=0;exitX=0;exitY=1;exitDx=0;exitDy=0;entryX=1;entryY=0;entryDx=0;entryDy=0;" parent="1" source="cG2KfL0xKuCpc7DWFZHV-9" target="cG2KfL0xKuCpc7DWFZHV-19" edge="1">
          <mxGeometry x="0.001" width="160" relative="1" as="geometry">
            <mxPoint x="370" y="475" as="sourcePoint" />
            <mxPoint x="260" y="415" as="targetPoint" />
            <mxPoint as="offset" />
          </mxGeometry>
        </mxCell>
        <mxCell id="cG2KfL0xKuCpc7DWFZHV-24" value="Xem lại các đoạn văn người dùng đã nhập trước đó" style="ellipse;whiteSpace=wrap;html=1;" parent="1" vertex="1">
          <mxGeometry x="240" y="610" width="140" height="70" as="geometry" />
        </mxCell>
        <mxCell id="cG2KfL0xKuCpc7DWFZHV-25" value="Extends" style="endArrow=block;endSize=16;endFill=0;html=1;rounded=0;entryX=1;entryY=0.5;entryDx=0;entryDy=0;exitX=0;exitY=0.5;exitDx=0;exitDy=0;" parent="1" source="cG2KfL0xKuCpc7DWFZHV-1" target="cG2KfL0xKuCpc7DWFZHV-24" edge="1">
          <mxGeometry width="160" relative="1" as="geometry">
            <mxPoint x="630" y="820" as="sourcePoint" />
            <mxPoint x="514" y="770" as="targetPoint" />
          </mxGeometry>
        </mxCell>
        <mxCell id="cG2KfL0xKuCpc7DWFZHV-28" value="" style="shape=ellipse;container=1;horizontal=1;horizontalStack=0;resizeParent=1;resizeParentMax=0;resizeLast=0;html=1;dashed=0;collapsible=0;" parent="1" vertex="1">
          <mxGeometry x="860" y="330" width="180" height="120" as="geometry" />
        </mxCell>
        <mxCell id="cG2KfL0xKuCpc7DWFZHV-29" value="Mastermind" style="html=1;strokeColor=none;fillColor=none;align=center;verticalAlign=middle;rotatable=0;whiteSpace=wrap;" parent="cG2KfL0xKuCpc7DWFZHV-28" vertex="1">
          <mxGeometry width="180" height="30" as="geometry" />
        </mxCell>
        <mxCell id="cG2KfL0xKuCpc7DWFZHV-30" value="" style="line;strokeWidth=1;fillColor=none;rotatable=0;labelPosition=right;points=[];portConstraint=eastwest;dashed=0;resizeWidth=1;" parent="cG2KfL0xKuCpc7DWFZHV-28" vertex="1">
          <mxGeometry x="9" y="30" width="162" height="10" as="geometry" />
        </mxCell>
        <mxCell id="cG2KfL0xKuCpc7DWFZHV-31" value="extension points" style="text;html=1;align=center;verticalAlign=middle;rotatable=0;fillColor=none;strokeColor=none;whiteSpace=wrap;" parent="cG2KfL0xKuCpc7DWFZHV-28" vertex="1">
          <mxGeometry y="40" width="180" height="30" as="geometry" />
        </mxCell>
        <mxCell id="cG2KfL0xKuCpc7DWFZHV-32" value="Từ vựng&amp;nbsp;" style="text;html=1;align=left;verticalAlign=middle;rotatable=0;spacingLeft=25;fillColor=none;strokeColor=none;whiteSpace=wrap;" parent="cG2KfL0xKuCpc7DWFZHV-28" vertex="1">
          <mxGeometry x="20" y="70" width="130" height="30" as="geometry" />
        </mxCell>
        <mxCell id="cG2KfL0xKuCpc7DWFZHV-33" value="" style="endArrow=none;html=1;rounded=0;entryX=0.5;entryY=1;entryDx=0;entryDy=0;exitX=0.5;exitY=0;exitDx=0;exitDy=0;exitPerimeter=0;" parent="1" source="0DPw3A4Dp9pLK03k4MNu-14" target="cG2KfL0xKuCpc7DWFZHV-28" edge="1">
          <mxGeometry width="50" height="50" relative="1" as="geometry">
            <mxPoint x="980" y="723" as="sourcePoint" />
            <mxPoint x="1225" y="608" as="targetPoint" />
          </mxGeometry>
        </mxCell>
        <mxCell id="cG2KfL0xKuCpc7DWFZHV-35" value="Extends" style="endArrow=block;endSize=16;endFill=0;html=1;rounded=0;entryX=1;entryY=1;entryDx=0;entryDy=0;exitX=0;exitY=0.5;exitDx=0;exitDy=0;" parent="1" source="cG2KfL0xKuCpc7DWFZHV-31" target="cG2KfL0xKuCpc7DWFZHV-36" edge="1">
          <mxGeometry width="160" relative="1" as="geometry">
            <mxPoint x="860" y="320" as="sourcePoint" />
            <mxPoint x="744" y="270" as="targetPoint" />
          </mxGeometry>
        </mxCell>
        <mxCell id="cG2KfL0xKuCpc7DWFZHV-36" value="Tạo ảnh từ từ vựng&amp;nbsp;" style="ellipse;whiteSpace=wrap;html=1;" parent="1" vertex="1">
          <mxGeometry x="620" y="210" width="140" height="70" as="geometry" />
        </mxCell>
        <mxCell id="cG2KfL0xKuCpc7DWFZHV-39" value="Xem lại lịch sử sử dụng&amp;nbsp;" style="ellipse;whiteSpace=wrap;html=1;" parent="1" vertex="1">
          <mxGeometry x="1010" y="200" width="140" height="70" as="geometry" />
        </mxCell>
        <mxCell id="cG2KfL0xKuCpc7DWFZHV-40" value="Extends" style="endArrow=block;endSize=16;endFill=0;html=1;rounded=0;entryX=0.5;entryY=1;entryDx=0;entryDy=0;exitX=1;exitY=0.25;exitDx=0;exitDy=0;" parent="1" source="cG2KfL0xKuCpc7DWFZHV-31" target="cG2KfL0xKuCpc7DWFZHV-39" edge="1">
          <mxGeometry width="160" relative="1" as="geometry">
            <mxPoint x="918" y="340" as="sourcePoint" />
            <mxPoint x="749" y="280" as="targetPoint" />
          </mxGeometry>
        </mxCell>
      </root>
    </mxGraphModel>
  </diagram>
  <diagram id="gP70hhocbkEgdNil8nW2" name="Register_activity">
    <mxGraphModel dx="1050" dy="669" grid="1" gridSize="10" guides="1" tooltips="1" connect="1" arrows="1" fold="1" page="1" pageScale="1" pageWidth="3300" pageHeight="4681" math="0" shadow="0">
      <root>
        <mxCell id="0" />
        <mxCell id="1" parent="0" />
        <mxCell id="aPFZw-jt1aRynHHRrmMn-6" style="edgeStyle=orthogonalEdgeStyle;rounded=0;orthogonalLoop=1;jettySize=auto;html=1;exitX=0.5;exitY=1;exitDx=0;exitDy=0;entryX=0.5;entryY=0;entryDx=0;entryDy=0;" parent="1" source="aPFZw-jt1aRynHHRrmMn-1" target="aPFZw-jt1aRynHHRrmMn-2" edge="1">
          <mxGeometry relative="1" as="geometry" />
        </mxCell>
        <mxCell id="aPFZw-jt1aRynHHRrmMn-1" value="" style="ellipse;fillColor=strokeColor;html=1;" parent="1" vertex="1">
          <mxGeometry x="550" y="440" width="30" height="30" as="geometry" />
        </mxCell>
        <mxCell id="aPFZw-jt1aRynHHRrmMn-8" value="" style="edgeStyle=orthogonalEdgeStyle;rounded=0;orthogonalLoop=1;jettySize=auto;html=1;" parent="1" source="aPFZw-jt1aRynHHRrmMn-2" target="aPFZw-jt1aRynHHRrmMn-7" edge="1">
          <mxGeometry relative="1" as="geometry" />
        </mxCell>
        <mxCell id="aPFZw-jt1aRynHHRrmMn-2" value="Điền thông tin vào trong user_form" style="html=1;align=center;verticalAlign=top;rounded=1;absoluteArcSize=1;arcSize=10;dashed=0;whiteSpace=wrap;" parent="1" vertex="1">
          <mxGeometry x="495" y="540" width="140" height="40" as="geometry" />
        </mxCell>
        <mxCell id="aPFZw-jt1aRynHHRrmMn-3" value="Register" style="shape=note2;boundedLbl=1;whiteSpace=wrap;html=1;size=25;verticalAlign=top;align=center;" parent="1" vertex="1">
          <mxGeometry x="330" y="330" width="120" height="60" as="geometry" />
        </mxCell>
        <mxCell id="aPFZw-jt1aRynHHRrmMn-5" style="edgeStyle=orthogonalEdgeStyle;rounded=0;orthogonalLoop=1;jettySize=auto;html=1;entryX=0;entryY=0.5;entryDx=0;entryDy=0;" parent="1" source="aPFZw-jt1aRynHHRrmMn-4" target="aPFZw-jt1aRynHHRrmMn-1" edge="1">
          <mxGeometry relative="1" as="geometry" />
        </mxCell>
        <mxCell id="aPFZw-jt1aRynHHRrmMn-4" value="Người dùng chưa có tài khoản" style="fontStyle=0;html=1;whiteSpace=wrap;" parent="1" vertex="1">
          <mxGeometry x="230" y="435" width="120" height="40" as="geometry" />
        </mxCell>
        <mxCell id="aPFZw-jt1aRynHHRrmMn-9" style="edgeStyle=orthogonalEdgeStyle;rounded=0;orthogonalLoop=1;jettySize=auto;html=1;entryX=1;entryY=0.5;entryDx=0;entryDy=0;" parent="1" source="aPFZw-jt1aRynHHRrmMn-7" target="aPFZw-jt1aRynHHRrmMn-2" edge="1">
          <mxGeometry relative="1" as="geometry">
            <Array as="points">
              <mxPoint x="655" y="685" />
              <mxPoint x="655" y="560" />
            </Array>
          </mxGeometry>
        </mxCell>
        <mxCell id="aPFZw-jt1aRynHHRrmMn-13" style="edgeStyle=orthogonalEdgeStyle;rounded=0;orthogonalLoop=1;jettySize=auto;html=1;entryX=0.5;entryY=0;entryDx=0;entryDy=0;" parent="1" source="aPFZw-jt1aRynHHRrmMn-7" target="aPFZw-jt1aRynHHRrmMn-12" edge="1">
          <mxGeometry relative="1" as="geometry" />
        </mxCell>
        <mxCell id="aPFZw-jt1aRynHHRrmMn-7" value="" style="rhombus;" parent="1" vertex="1">
          <mxGeometry x="550" y="670" width="30" height="30" as="geometry" />
        </mxCell>
        <mxCell id="aPFZw-jt1aRynHHRrmMn-10" value="Không hợp lệ" style="text;html=1;align=center;verticalAlign=middle;resizable=0;points=[];autosize=1;strokeColor=none;fillColor=none;" parent="1" vertex="1">
          <mxGeometry x="660" y="620" width="100" height="30" as="geometry" />
        </mxCell>
        <mxCell id="aPFZw-jt1aRynHHRrmMn-15" style="edgeStyle=orthogonalEdgeStyle;rounded=0;orthogonalLoop=1;jettySize=auto;html=1;entryX=0.5;entryY=0;entryDx=0;entryDy=0;" parent="1" source="aPFZw-jt1aRynHHRrmMn-12" target="aPFZw-jt1aRynHHRrmMn-14" edge="1">
          <mxGeometry relative="1" as="geometry" />
        </mxCell>
        <mxCell id="aPFZw-jt1aRynHHRrmMn-12" value="Thông báo đăng kí thành công (register_done)" style="html=1;align=center;verticalAlign=top;rounded=1;absoluteArcSize=1;arcSize=10;dashed=0;whiteSpace=wrap;" parent="1" vertex="1">
          <mxGeometry x="495" y="790" width="140" height="40" as="geometry" />
        </mxCell>
        <mxCell id="aPFZw-jt1aRynHHRrmMn-18" style="edgeStyle=orthogonalEdgeStyle;rounded=0;orthogonalLoop=1;jettySize=auto;html=1;entryX=1;entryY=0.5;entryDx=0;entryDy=0;" parent="1" source="aPFZw-jt1aRynHHRrmMn-14" target="aPFZw-jt1aRynHHRrmMn-16" edge="1">
          <mxGeometry relative="1" as="geometry" />
        </mxCell>
        <mxCell id="aPFZw-jt1aRynHHRrmMn-19" style="edgeStyle=orthogonalEdgeStyle;rounded=0;orthogonalLoop=1;jettySize=auto;html=1;" parent="1" source="aPFZw-jt1aRynHHRrmMn-14" edge="1">
          <mxGeometry relative="1" as="geometry">
            <mxPoint x="565" y="1030" as="targetPoint" />
          </mxGeometry>
        </mxCell>
        <mxCell id="aPFZw-jt1aRynHHRrmMn-14" value="" style="rhombus;" parent="1" vertex="1">
          <mxGeometry x="550" y="910" width="30" height="30" as="geometry" />
        </mxCell>
        <mxCell id="aPFZw-jt1aRynHHRrmMn-16" value="Login&amp;nbsp;" style="html=1;align=center;verticalAlign=top;rounded=1;absoluteArcSize=1;arcSize=10;dashed=0;whiteSpace=wrap;" parent="1" vertex="1">
          <mxGeometry x="290" y="905" width="140" height="40" as="geometry" />
        </mxCell>
        <mxCell id="aPFZw-jt1aRynHHRrmMn-20" value="" style="ellipse;html=1;shape=endState;fillColor=strokeColor;" parent="1" vertex="1">
          <mxGeometry x="550" y="1030" width="30" height="30" as="geometry" />
        </mxCell>
      </root>
    </mxGraphModel>
  </diagram>
  <diagram id="cXgwg4G63426jOUSIh5y" name="Login_activity">
    <mxGraphModel dx="1843" dy="956" grid="0" gridSize="10" guides="1" tooltips="1" connect="1" arrows="1" fold="1" page="1" pageScale="1" pageWidth="3300" pageHeight="4681" math="0" shadow="0">
      <root>
        <mxCell id="0" />
        <mxCell id="1" parent="0" />
        <mxCell id="0ZyoxE8hcd6cBAoxdiCI-2" style="edgeStyle=orthogonalEdgeStyle;rounded=0;orthogonalLoop=1;jettySize=auto;html=1;" parent="1" source="UIgjYERl8v2XoCaLod8m-1" target="0ZyoxE8hcd6cBAoxdiCI-1" edge="1">
          <mxGeometry relative="1" as="geometry" />
        </mxCell>
        <mxCell id="UIgjYERl8v2XoCaLod8m-1" value="" style="ellipse;fillColor=strokeColor;html=1;" parent="1" vertex="1">
          <mxGeometry x="690" y="175" width="30" height="30" as="geometry" />
        </mxCell>
        <mxCell id="eWtBvS3ugPcyO3-SCLPH-6" style="edgeStyle=orthogonalEdgeStyle;rounded=0;orthogonalLoop=1;jettySize=auto;html=1;entryX=0;entryY=0.5;entryDx=0;entryDy=0;" parent="1" source="eWtBvS3ugPcyO3-SCLPH-5" target="UIgjYERl8v2XoCaLod8m-1" edge="1">
          <mxGeometry relative="1" as="geometry" />
        </mxCell>
        <mxCell id="eWtBvS3ugPcyO3-SCLPH-5" value="Người dùng đã có tài khoản" style="fontStyle=0;html=1;whiteSpace=wrap;" parent="1" vertex="1">
          <mxGeometry x="320" y="170" width="120" height="40" as="geometry" />
        </mxCell>
        <mxCell id="ZAMnJX0O_FJBbpvH_zeM-2" style="edgeStyle=orthogonalEdgeStyle;rounded=0;orthogonalLoop=1;jettySize=auto;html=1;entryX=0.5;entryY=0;entryDx=0;entryDy=0;" parent="1" source="0ZyoxE8hcd6cBAoxdiCI-1" target="ZAMnJX0O_FJBbpvH_zeM-1" edge="1">
          <mxGeometry relative="1" as="geometry" />
        </mxCell>
        <mxCell id="0ZyoxE8hcd6cBAoxdiCI-1" value="Điền thông tin user_form" style="html=1;align=center;verticalAlign=top;rounded=1;absoluteArcSize=1;arcSize=10;dashed=0;whiteSpace=wrap;" parent="1" vertex="1">
          <mxGeometry x="632.5" y="295" width="145" height="40" as="geometry" />
        </mxCell>
        <mxCell id="ZAMnJX0O_FJBbpvH_zeM-3" style="edgeStyle=orthogonalEdgeStyle;rounded=0;orthogonalLoop=1;jettySize=auto;html=1;" parent="1" source="ZAMnJX0O_FJBbpvH_zeM-1" edge="1">
          <mxGeometry relative="1" as="geometry">
            <mxPoint x="705" y="595" as="targetPoint" />
          </mxGeometry>
        </mxCell>
        <mxCell id="ZAMnJX0O_FJBbpvH_zeM-6" style="edgeStyle=orthogonalEdgeStyle;rounded=0;orthogonalLoop=1;jettySize=auto;html=1;entryX=1;entryY=0.5;entryDx=0;entryDy=0;" parent="1" source="ZAMnJX0O_FJBbpvH_zeM-1" target="0ZyoxE8hcd6cBAoxdiCI-1" edge="1">
          <mxGeometry relative="1" as="geometry">
            <Array as="points">
              <mxPoint x="798" y="470" />
              <mxPoint x="798" y="315" />
            </Array>
          </mxGeometry>
        </mxCell>
        <mxCell id="jWy54cKQOk2yrm8p4zMF-2" style="edgeStyle=orthogonalEdgeStyle;rounded=0;orthogonalLoop=1;jettySize=auto;html=1;entryX=1;entryY=0.5;entryDx=0;entryDy=0;" parent="1" source="ZAMnJX0O_FJBbpvH_zeM-1" target="jWy54cKQOk2yrm8p4zMF-1" edge="1">
          <mxGeometry relative="1" as="geometry" />
        </mxCell>
        <mxCell id="ZAMnJX0O_FJBbpvH_zeM-1" value="" style="rhombus;" parent="1" vertex="1">
          <mxGeometry x="690" y="455" width="30" height="30" as="geometry" />
        </mxCell>
        <mxCell id="ZAMnJX0O_FJBbpvH_zeM-9" style="edgeStyle=orthogonalEdgeStyle;rounded=0;orthogonalLoop=1;jettySize=auto;html=1;" parent="1" source="ZAMnJX0O_FJBbpvH_zeM-4" edge="1">
          <mxGeometry relative="1" as="geometry">
            <mxPoint x="705" y="745" as="targetPoint" />
          </mxGeometry>
        </mxCell>
        <mxCell id="ZAMnJX0O_FJBbpvH_zeM-4" value="Truy cập home.html" style="html=1;align=center;verticalAlign=top;rounded=1;absoluteArcSize=1;arcSize=10;dashed=0;whiteSpace=wrap;" parent="1" vertex="1">
          <mxGeometry x="635" y="595" width="140" height="40" as="geometry" />
        </mxCell>
        <mxCell id="ZAMnJX0O_FJBbpvH_zeM-8" value="Không hợp lệ&amp;nbsp;&lt;div&gt;or sai thông tin&lt;div&gt;&lt;br&gt;&lt;/div&gt;&lt;/div&gt;" style="text;html=1;align=center;verticalAlign=middle;resizable=0;points=[];autosize=1;strokeColor=none;fillColor=none;" parent="1" vertex="1">
          <mxGeometry x="800" y="405" width="100" height="60" as="geometry" />
        </mxCell>
        <mxCell id="ZAMnJX0O_FJBbpvH_zeM-12" style="edgeStyle=orthogonalEdgeStyle;rounded=0;orthogonalLoop=1;jettySize=auto;html=1;entryX=1;entryY=0.5;entryDx=0;entryDy=0;" parent="1" source="ZAMnJX0O_FJBbpvH_zeM-10" target="ZAMnJX0O_FJBbpvH_zeM-11" edge="1">
          <mxGeometry relative="1" as="geometry" />
        </mxCell>
        <mxCell id="fIfAc7CNb0As84EqtWFV-3" style="edgeStyle=orthogonalEdgeStyle;rounded=0;orthogonalLoop=1;jettySize=auto;html=1;entryX=0.5;entryY=0;entryDx=0;entryDy=0;" parent="1" source="ZAMnJX0O_FJBbpvH_zeM-10" target="fIfAc7CNb0As84EqtWFV-1" edge="1">
          <mxGeometry relative="1" as="geometry" />
        </mxCell>
        <mxCell id="ZAMnJX0O_FJBbpvH_zeM-10" value="" style="rhombus;" parent="1" vertex="1">
          <mxGeometry x="690" y="745" width="30" height="30" as="geometry" />
        </mxCell>
        <mxCell id="ZAMnJX0O_FJBbpvH_zeM-11" value="Logout" style="html=1;align=center;verticalAlign=top;rounded=1;absoluteArcSize=1;arcSize=10;dashed=0;whiteSpace=wrap;" parent="1" vertex="1">
          <mxGeometry x="440" y="740" width="140" height="40" as="geometry" />
        </mxCell>
        <mxCell id="fIfAc7CNb0As84EqtWFV-1" value="" style="ellipse;html=1;shape=endState;fillColor=strokeColor;" parent="1" vertex="1">
          <mxGeometry x="690" y="895" width="30" height="30" as="geometry" />
        </mxCell>
        <mxCell id="jWy54cKQOk2yrm8p4zMF-1" value="Quên mật khẩu" style="html=1;align=center;verticalAlign=top;rounded=1;absoluteArcSize=1;arcSize=10;dashed=0;whiteSpace=wrap;" parent="1" vertex="1">
          <mxGeometry x="430" y="450" width="140" height="40" as="geometry" />
        </mxCell>
        <mxCell id="jWy54cKQOk2yrm8p4zMF-6" style="edgeStyle=orthogonalEdgeStyle;rounded=0;orthogonalLoop=1;jettySize=auto;html=1;" parent="1" source="jWy54cKQOk2yrm8p4zMF-3" edge="1">
          <mxGeometry relative="1" as="geometry">
            <mxPoint x="270" y="590" as="targetPoint" />
          </mxGeometry>
        </mxCell>
        <mxCell id="jWy54cKQOk2yrm8p4zMF-3" value="Điền thông tin email" style="html=1;align=center;verticalAlign=top;rounded=1;absoluteArcSize=1;arcSize=10;dashed=0;whiteSpace=wrap;" parent="1" vertex="1">
          <mxGeometry x="200" y="505" width="140" height="40" as="geometry" />
        </mxCell>
        <mxCell id="jWy54cKQOk2yrm8p4zMF-4" style="edgeStyle=orthogonalEdgeStyle;rounded=0;orthogonalLoop=1;jettySize=auto;html=1;entryX=0.5;entryY=0;entryDx=0;entryDy=0;" parent="1" target="jWy54cKQOk2yrm8p4zMF-3" edge="1">
          <mxGeometry relative="1" as="geometry">
            <mxPoint x="430" y="469.5" as="sourcePoint" />
            <mxPoint x="310" y="469.5" as="targetPoint" />
          </mxGeometry>
        </mxCell>
        <mxCell id="jWy54cKQOk2yrm8p4zMF-8" style="edgeStyle=orthogonalEdgeStyle;rounded=0;orthogonalLoop=1;jettySize=auto;html=1;" parent="1" source="jWy54cKQOk2yrm8p4zMF-7" edge="1">
          <mxGeometry relative="1" as="geometry">
            <mxPoint x="460" y="615" as="targetPoint" />
          </mxGeometry>
        </mxCell>
        <mxCell id="jWy54cKQOk2yrm8p4zMF-7" value="Điền mã&amp;nbsp;" style="html=1;align=center;verticalAlign=top;rounded=1;absoluteArcSize=1;arcSize=10;dashed=0;whiteSpace=wrap;" parent="1" vertex="1">
          <mxGeometry x="200" y="595" width="140" height="40" as="geometry" />
        </mxCell>
        <mxCell id="jWy54cKQOk2yrm8p4zMF-10" style="edgeStyle=orthogonalEdgeStyle;rounded=0;orthogonalLoop=1;jettySize=auto;html=1;entryX=0;entryY=0.5;entryDx=0;entryDy=0;" parent="1" source="jWy54cKQOk2yrm8p4zMF-9" target="ZAMnJX0O_FJBbpvH_zeM-4" edge="1">
          <mxGeometry relative="1" as="geometry" />
        </mxCell>
        <mxCell id="jWy54cKQOk2yrm8p4zMF-13" style="edgeStyle=orthogonalEdgeStyle;rounded=0;orthogonalLoop=1;jettySize=auto;html=1;entryX=0.5;entryY=1;entryDx=0;entryDy=0;" parent="1" source="jWy54cKQOk2yrm8p4zMF-9" target="jWy54cKQOk2yrm8p4zMF-7" edge="1">
          <mxGeometry relative="1" as="geometry">
            <Array as="points">
              <mxPoint x="475" y="655" />
              <mxPoint x="270" y="655" />
            </Array>
          </mxGeometry>
        </mxCell>
        <mxCell id="jWy54cKQOk2yrm8p4zMF-9" value="" style="rhombus;" parent="1" vertex="1">
          <mxGeometry x="460" y="600" width="30" height="30" as="geometry" />
        </mxCell>
        <mxCell id="jWy54cKQOk2yrm8p4zMF-12" style="edgeStyle=orthogonalEdgeStyle;rounded=0;orthogonalLoop=1;jettySize=auto;html=1;entryX=0;entryY=0.75;entryDx=0;entryDy=0;exitX=0.5;exitY=1;exitDx=0;exitDy=0;" parent="1" source="jWy54cKQOk2yrm8p4zMF-11" target="jWy54cKQOk2yrm8p4zMF-7" edge="1">
          <mxGeometry relative="1" as="geometry">
            <Array as="points">
              <mxPoint x="120" y="625" />
            </Array>
          </mxGeometry>
        </mxCell>
        <mxCell id="jWy54cKQOk2yrm8p4zMF-11" value="Hệ thống gửi mã về email" style="fontStyle=0;html=1;whiteSpace=wrap;" parent="1" vertex="1">
          <mxGeometry x="60" y="365" width="120" height="40" as="geometry" />
        </mxCell>
        <mxCell id="jWy54cKQOk2yrm8p4zMF-14" value="Không hợp lệ" style="text;html=1;align=center;verticalAlign=middle;resizable=0;points=[];autosize=1;strokeColor=none;fillColor=none;" parent="1" vertex="1">
          <mxGeometry x="300" y="658" width="100" height="30" as="geometry" />
        </mxCell>
      </root>
    </mxGraphModel>
  </diagram>
  <diagram id="THqku6XFnS8_p8aTK-1B" name="Edit_activity">
    <mxGraphModel dx="1050" dy="669" grid="0" gridSize="10" guides="1" tooltips="1" connect="1" arrows="1" fold="1" page="1" pageScale="1" pageWidth="3300" pageHeight="4681" math="0" shadow="0">
      <root>
        <mxCell id="0" />
        <mxCell id="1" parent="0" />
        <mxCell id="Bl6yhfQr1x0aOw9oCqGe-5" style="edgeStyle=orthogonalEdgeStyle;rounded=0;orthogonalLoop=1;jettySize=auto;html=1;entryX=0.5;entryY=0;entryDx=0;entryDy=0;" parent="1" source="Bl6yhfQr1x0aOw9oCqGe-1" target="Bl6yhfQr1x0aOw9oCqGe-4" edge="1">
          <mxGeometry relative="1" as="geometry" />
        </mxCell>
        <mxCell id="Bl6yhfQr1x0aOw9oCqGe-1" value="" style="ellipse;fillColor=strokeColor;html=1;" parent="1" vertex="1">
          <mxGeometry x="510" y="100" width="30" height="30" as="geometry" />
        </mxCell>
        <mxCell id="Bl6yhfQr1x0aOw9oCqGe-3" style="edgeStyle=orthogonalEdgeStyle;rounded=0;orthogonalLoop=1;jettySize=auto;html=1;entryX=0;entryY=0.5;entryDx=0;entryDy=0;" parent="1" source="Bl6yhfQr1x0aOw9oCqGe-2" target="Bl6yhfQr1x0aOw9oCqGe-1" edge="1">
          <mxGeometry relative="1" as="geometry" />
        </mxCell>
        <mxCell id="Bl6yhfQr1x0aOw9oCqGe-2" value="Người dùng đã đăng nhập" style="fontStyle=0;html=1;whiteSpace=wrap;" parent="1" vertex="1">
          <mxGeometry x="120" y="95" width="120" height="40" as="geometry" />
        </mxCell>
        <mxCell id="suPZwCp8Pu9VuF_BmDS_-1" style="edgeStyle=orthogonalEdgeStyle;rounded=0;orthogonalLoop=1;jettySize=auto;html=1;" parent="1" source="Bl6yhfQr1x0aOw9oCqGe-4" edge="1">
          <mxGeometry relative="1" as="geometry">
            <mxPoint x="525" y="380" as="targetPoint" />
          </mxGeometry>
        </mxCell>
        <mxCell id="Bl6yhfQr1x0aOw9oCqGe-4" value="Edit thông tin ( điền user_form và profile_form)" style="html=1;align=center;verticalAlign=top;rounded=1;absoluteArcSize=1;arcSize=10;dashed=0;whiteSpace=wrap;" parent="1" vertex="1">
          <mxGeometry x="442.5" y="210" width="165" height="50" as="geometry" />
        </mxCell>
        <mxCell id="suPZwCp8Pu9VuF_BmDS_-5" style="edgeStyle=orthogonalEdgeStyle;rounded=0;orthogonalLoop=1;jettySize=auto;html=1;entryX=0.5;entryY=0;entryDx=0;entryDy=0;" parent="1" source="suPZwCp8Pu9VuF_BmDS_-2" target="suPZwCp8Pu9VuF_BmDS_-4" edge="1">
          <mxGeometry relative="1" as="geometry" />
        </mxCell>
        <mxCell id="suPZwCp8Pu9VuF_BmDS_-11" style="edgeStyle=orthogonalEdgeStyle;rounded=0;orthogonalLoop=1;jettySize=auto;html=1;entryX=0;entryY=0.5;entryDx=0;entryDy=0;" parent="1" source="suPZwCp8Pu9VuF_BmDS_-2" target="suPZwCp8Pu9VuF_BmDS_-10" edge="1">
          <mxGeometry relative="1" as="geometry" />
        </mxCell>
        <mxCell id="suPZwCp8Pu9VuF_BmDS_-2" value="" style="rhombus;" parent="1" vertex="1">
          <mxGeometry x="510" y="380" width="30" height="30" as="geometry" />
        </mxCell>
        <mxCell id="suPZwCp8Pu9VuF_BmDS_-9" style="edgeStyle=orthogonalEdgeStyle;rounded=0;orthogonalLoop=1;jettySize=auto;html=1;" parent="1" source="suPZwCp8Pu9VuF_BmDS_-4" target="suPZwCp8Pu9VuF_BmDS_-8" edge="1">
          <mxGeometry relative="1" as="geometry" />
        </mxCell>
        <mxCell id="suPZwCp8Pu9VuF_BmDS_-4" value="Thông báo pop up cập nhật thành công" style="html=1;align=center;verticalAlign=top;rounded=1;absoluteArcSize=1;arcSize=10;dashed=0;whiteSpace=wrap;" parent="1" vertex="1">
          <mxGeometry x="442.5" y="470" width="165" height="50" as="geometry" />
        </mxCell>
        <mxCell id="suPZwCp8Pu9VuF_BmDS_-7" value="không hợp lệ" style="text;html=1;align=center;verticalAlign=middle;resizable=0;points=[];autosize=1;strokeColor=none;fillColor=none;" parent="1" vertex="1">
          <mxGeometry x="560" y="360" width="90" height="30" as="geometry" />
        </mxCell>
        <mxCell id="suPZwCp8Pu9VuF_BmDS_-8" value="" style="ellipse;html=1;shape=endState;fillColor=strokeColor;" parent="1" vertex="1">
          <mxGeometry x="510" y="610" width="30" height="30" as="geometry" />
        </mxCell>
        <mxCell id="suPZwCp8Pu9VuF_BmDS_-12" style="edgeStyle=orthogonalEdgeStyle;rounded=0;orthogonalLoop=1;jettySize=auto;html=1;entryX=1;entryY=0.5;entryDx=0;entryDy=0;exitX=0.5;exitY=0;exitDx=0;exitDy=0;" parent="1" source="suPZwCp8Pu9VuF_BmDS_-10" target="Bl6yhfQr1x0aOw9oCqGe-4" edge="1">
          <mxGeometry relative="1" as="geometry">
            <mxPoint x="762.5" y="350" as="sourcePoint" />
            <mxPoint x="710" y="190" as="targetPoint" />
          </mxGeometry>
        </mxCell>
        <mxCell id="suPZwCp8Pu9VuF_BmDS_-10" value="Thông báo pop up cập nhật không thành công" style="html=1;align=center;verticalAlign=top;rounded=1;absoluteArcSize=1;arcSize=10;dashed=0;whiteSpace=wrap;" parent="1" vertex="1">
          <mxGeometry x="660" y="370" width="165" height="50" as="geometry" />
        </mxCell>
      </root>
    </mxGraphModel>
  </diagram>
  <diagram id="UjE2sg5HHjDZ0DAAH4zq" name="Flashcard_activity">
    <mxGraphModel dx="2333" dy="1487" grid="0" gridSize="10" guides="1" tooltips="1" connect="1" arrows="1" fold="1" page="1" pageScale="1" pageWidth="3300" pageHeight="4681" math="0" shadow="0">
      <root>
        <mxCell id="0" />
        <mxCell id="1" parent="0" />
        <mxCell id="PTUfjIbUAI21GaRFJDCH-3" style="edgeStyle=orthogonalEdgeStyle;rounded=0;orthogonalLoop=1;jettySize=auto;html=1;" parent="1" source="1BMEtl9659J0HVE9FLUO-1" edge="1">
          <mxGeometry relative="1" as="geometry">
            <mxPoint x="855" y="560" as="targetPoint" />
          </mxGeometry>
        </mxCell>
        <mxCell id="1BMEtl9659J0HVE9FLUO-1" value="" style="ellipse;fillColor=strokeColor;html=1;" parent="1" vertex="1">
          <mxGeometry x="840" y="445" width="30" height="30" as="geometry" />
        </mxCell>
        <mxCell id="PTUfjIbUAI21GaRFJDCH-1" style="edgeStyle=orthogonalEdgeStyle;rounded=0;orthogonalLoop=1;jettySize=auto;html=1;entryX=0;entryY=0.5;entryDx=0;entryDy=0;" parent="1" source="1BMEtl9659J0HVE9FLUO-2" target="1BMEtl9659J0HVE9FLUO-1" edge="1">
          <mxGeometry relative="1" as="geometry" />
        </mxCell>
        <mxCell id="1BMEtl9659J0HVE9FLUO-2" value="Người dùng lựa chọn ứng dụng flash_card" style="fontStyle=0;html=1;whiteSpace=wrap;" parent="1" vertex="1">
          <mxGeometry x="470" y="440" width="160" height="40" as="geometry" />
        </mxCell>
        <mxCell id="PTUfjIbUAI21GaRFJDCH-2" value="Edit&amp;nbsp;" style="shape=note2;boundedLbl=1;whiteSpace=wrap;html=1;size=25;verticalAlign=top;align=center;" parent="1" vertex="1">
          <mxGeometry x="640" y="320" width="120" height="60" as="geometry" />
        </mxCell>
        <mxCell id="PTUfjIbUAI21GaRFJDCH-4" value="List các bộ từ&amp;nbsp;" style="html=1;align=center;verticalAlign=top;rounded=1;absoluteArcSize=1;arcSize=10;dashed=0;whiteSpace=wrap;" parent="1" vertex="1">
          <mxGeometry x="785" y="560" width="140" height="40" as="geometry" />
        </mxCell>
        <mxCell id="PTUfjIbUAI21GaRFJDCH-23" style="edgeStyle=orthogonalEdgeStyle;rounded=0;orthogonalLoop=1;jettySize=auto;html=1;entryX=0.5;entryY=0;entryDx=0;entryDy=0;exitX=0.5;exitY=1;exitDx=0;exitDy=0;" parent="1" source="PTUfjIbUAI21GaRFJDCH-4" target="PTUfjIbUAI21GaRFJDCH-22" edge="1">
          <mxGeometry relative="1" as="geometry">
            <mxPoint x="855" y="702.5" as="sourcePoint" />
          </mxGeometry>
        </mxCell>
        <mxCell id="PTUfjIbUAI21GaRFJDCH-22" value="Chỉnh sửa thông tin bộ từ" style="html=1;align=center;verticalAlign=top;rounded=1;absoluteArcSize=1;arcSize=10;dashed=0;whiteSpace=wrap;" parent="1" vertex="1">
          <mxGeometry x="752.5" y="740" width="205" height="60" as="geometry" />
        </mxCell>
        <mxCell id="PTUfjIbUAI21GaRFJDCH-45" style="edgeStyle=orthogonalEdgeStyle;rounded=0;orthogonalLoop=1;jettySize=auto;html=1;" parent="1" source="PTUfjIbUAI21GaRFJDCH-42" target="PTUfjIbUAI21GaRFJDCH-43" edge="1">
          <mxGeometry relative="1" as="geometry" />
        </mxCell>
        <mxCell id="PTUfjIbUAI21GaRFJDCH-46" style="edgeStyle=orthogonalEdgeStyle;rounded=0;orthogonalLoop=1;jettySize=auto;html=1;entryX=0.5;entryY=0;entryDx=0;entryDy=0;" parent="1" source="PTUfjIbUAI21GaRFJDCH-42" target="PTUfjIbUAI21GaRFJDCH-44" edge="1">
          <mxGeometry relative="1" as="geometry" />
        </mxCell>
        <mxCell id="PTUfjIbUAI21GaRFJDCH-42" value="" style="html=1;points=[];perimeter=orthogonalPerimeter;fillColor=strokeColor;rotation=90;" parent="1" vertex="1">
          <mxGeometry x="851.25" y="890" width="7.5" height="80" as="geometry" />
        </mxCell>
        <mxCell id="PTUfjIbUAI21GaRFJDCH-48" style="edgeStyle=orthogonalEdgeStyle;rounded=0;orthogonalLoop=1;jettySize=auto;html=1;entryX=0.5;entryY=0;entryDx=0;entryDy=0;" parent="1" source="PTUfjIbUAI21GaRFJDCH-43" target="PTUfjIbUAI21GaRFJDCH-49" edge="1">
          <mxGeometry relative="1" as="geometry">
            <mxPoint x="672.5" y="1178.75" as="targetPoint" />
          </mxGeometry>
        </mxCell>
        <mxCell id="PTUfjIbUAI21GaRFJDCH-43" value="Chỉnh sửa thông tin studyset_form" style="html=1;align=center;verticalAlign=top;rounded=1;absoluteArcSize=1;arcSize=10;dashed=0;whiteSpace=wrap;" parent="1" vertex="1">
          <mxGeometry x="570" y="998.75" width="205" height="60" as="geometry" />
        </mxCell>
        <mxCell id="PTUfjIbUAI21GaRFJDCH-56" style="edgeStyle=orthogonalEdgeStyle;rounded=0;orthogonalLoop=1;jettySize=auto;html=1;entryX=0.5;entryY=0;entryDx=0;entryDy=0;" parent="1" source="PTUfjIbUAI21GaRFJDCH-44" edge="1">
          <mxGeometry relative="1" as="geometry">
            <mxPoint x="1167.5" y="1188.75" as="targetPoint" />
          </mxGeometry>
        </mxCell>
        <mxCell id="PTUfjIbUAI21GaRFJDCH-44" value="Chỉnh sửa thông tin của từng từ trong form" style="html=1;align=center;verticalAlign=top;rounded=1;absoluteArcSize=1;arcSize=10;dashed=0;whiteSpace=wrap;" parent="1" vertex="1">
          <mxGeometry x="1065" y="998.75" width="205" height="60" as="geometry" />
        </mxCell>
        <mxCell id="PTUfjIbUAI21GaRFJDCH-52" style="edgeStyle=orthogonalEdgeStyle;rounded=0;orthogonalLoop=1;jettySize=auto;html=1;entryX=0;entryY=0.5;entryDx=0;entryDy=0;" parent="1" source="PTUfjIbUAI21GaRFJDCH-49" target="PTUfjIbUAI21GaRFJDCH-43" edge="1">
          <mxGeometry relative="1" as="geometry">
            <Array as="points">
              <mxPoint x="550" y="1203.75" />
              <mxPoint x="550" y="1028.75" />
            </Array>
          </mxGeometry>
        </mxCell>
        <mxCell id="PTUfjIbUAI21GaRFJDCH-49" value="" style="rhombus;" parent="1" vertex="1">
          <mxGeometry x="657.5" y="1188.75" width="30" height="30" as="geometry" />
        </mxCell>
        <mxCell id="PTUfjIbUAI21GaRFJDCH-53" value="Form không hợp lệ" style="text;html=1;align=center;verticalAlign=middle;resizable=0;points=[];autosize=1;strokeColor=none;fillColor=none;" parent="1" vertex="1">
          <mxGeometry x="430" y="1108.75" width="120" height="30" as="geometry" />
        </mxCell>
        <mxCell id="PTUfjIbUAI21GaRFJDCH-62" style="edgeStyle=orthogonalEdgeStyle;rounded=0;orthogonalLoop=1;jettySize=auto;html=1;" parent="1" source="PTUfjIbUAI21GaRFJDCH-58" target="PTUfjIbUAI21GaRFJDCH-59" edge="1">
          <mxGeometry relative="1" as="geometry" />
        </mxCell>
        <mxCell id="PTUfjIbUAI21GaRFJDCH-63" style="edgeStyle=orthogonalEdgeStyle;rounded=0;orthogonalLoop=1;jettySize=auto;html=1;entryX=0.5;entryY=0;entryDx=0;entryDy=0;" parent="1" source="PTUfjIbUAI21GaRFJDCH-58" target="PTUfjIbUAI21GaRFJDCH-60" edge="1">
          <mxGeometry relative="1" as="geometry" />
        </mxCell>
        <mxCell id="PTUfjIbUAI21GaRFJDCH-58" value="" style="html=1;points=[];perimeter=orthogonalPerimeter;fillColor=strokeColor;rotation=90;" parent="1" vertex="1">
          <mxGeometry x="1165" y="1158.75" width="5" height="80" as="geometry" />
        </mxCell>
        <mxCell id="inRyh9-KwwsGWARqRv-x-10" style="edgeStyle=orthogonalEdgeStyle;rounded=0;orthogonalLoop=1;jettySize=auto;html=1;entryX=0;entryY=0.5;entryDx=0;entryDy=0;" edge="1" parent="1" source="PTUfjIbUAI21GaRFJDCH-59" target="inRyh9-KwwsGWARqRv-x-8">
          <mxGeometry relative="1" as="geometry">
            <Array as="points">
              <mxPoint x="1020" y="1515" />
            </Array>
          </mxGeometry>
        </mxCell>
        <mxCell id="PTUfjIbUAI21GaRFJDCH-59" value="Xóa word" style="html=1;align=center;verticalAlign=top;rounded=1;absoluteArcSize=1;arcSize=10;dashed=0;whiteSpace=wrap;" parent="1" vertex="1">
          <mxGeometry x="920" y="1248.75" width="205" height="60" as="geometry" />
        </mxCell>
        <mxCell id="PTUfjIbUAI21GaRFJDCH-66" style="edgeStyle=orthogonalEdgeStyle;rounded=0;orthogonalLoop=1;jettySize=auto;html=1;" parent="1" source="PTUfjIbUAI21GaRFJDCH-60" edge="1">
          <mxGeometry relative="1" as="geometry">
            <mxPoint x="1312.5" y="1428.75" as="targetPoint" />
          </mxGeometry>
        </mxCell>
        <mxCell id="PTUfjIbUAI21GaRFJDCH-60" value="Chỉnh sửa thông tin word" style="html=1;align=center;verticalAlign=top;rounded=1;absoluteArcSize=1;arcSize=10;dashed=0;whiteSpace=wrap;" parent="1" vertex="1">
          <mxGeometry x="1210" y="1248.75" width="205" height="60" as="geometry" />
        </mxCell>
        <mxCell id="PTUfjIbUAI21GaRFJDCH-68" style="edgeStyle=orthogonalEdgeStyle;rounded=0;orthogonalLoop=1;jettySize=auto;html=1;entryX=1;entryY=0.5;entryDx=0;entryDy=0;" parent="1" source="PTUfjIbUAI21GaRFJDCH-67" target="PTUfjIbUAI21GaRFJDCH-60" edge="1">
          <mxGeometry relative="1" as="geometry" />
        </mxCell>
        <mxCell id="inRyh9-KwwsGWARqRv-x-11" style="edgeStyle=orthogonalEdgeStyle;rounded=0;orthogonalLoop=1;jettySize=auto;html=1;entryX=1;entryY=0.5;entryDx=0;entryDy=0;" edge="1" parent="1" source="PTUfjIbUAI21GaRFJDCH-67" target="inRyh9-KwwsGWARqRv-x-8">
          <mxGeometry relative="1" as="geometry">
            <Array as="points">
              <mxPoint x="1313" y="1515" />
            </Array>
          </mxGeometry>
        </mxCell>
        <mxCell id="PTUfjIbUAI21GaRFJDCH-67" value="" style="rhombus;" parent="1" vertex="1">
          <mxGeometry x="1297.5" y="1428.75" width="30" height="30" as="geometry" />
        </mxCell>
        <mxCell id="PTUfjIbUAI21GaRFJDCH-70" value="Không hợp lệ" style="text;html=1;align=center;verticalAlign=middle;resizable=0;points=[];autosize=1;strokeColor=none;fillColor=none;" parent="1" vertex="1">
          <mxGeometry x="1320" y="1376.75" width="100" height="30" as="geometry" />
        </mxCell>
        <mxCell id="PTUfjIbUAI21GaRFJDCH-73" value="" style="ellipse;html=1;shape=endState;fillColor=strokeColor;" parent="1" vertex="1">
          <mxGeometry x="753" y="1700" width="30" height="30" as="geometry" />
        </mxCell>
        <mxCell id="inRyh9-KwwsGWARqRv-x-3" style="edgeStyle=orthogonalEdgeStyle;rounded=0;orthogonalLoop=1;jettySize=auto;html=1;entryX=-0.133;entryY=0.481;entryDx=0;entryDy=0;entryPerimeter=0;" edge="1" parent="1" source="PTUfjIbUAI21GaRFJDCH-22" target="PTUfjIbUAI21GaRFJDCH-42">
          <mxGeometry relative="1" as="geometry" />
        </mxCell>
        <mxCell id="inRyh9-KwwsGWARqRv-x-5" style="edgeStyle=orthogonalEdgeStyle;rounded=0;orthogonalLoop=1;jettySize=auto;html=1;entryX=0.5;entryY=0;entryDx=0;entryDy=0;" edge="1" parent="1" source="PTUfjIbUAI21GaRFJDCH-49" target="PTUfjIbUAI21GaRFJDCH-73">
          <mxGeometry relative="1" as="geometry">
            <mxPoint x="763.98" y="1519.25" as="targetPoint" />
          </mxGeometry>
        </mxCell>
        <mxCell id="inRyh9-KwwsGWARqRv-x-7" value="For" style="shape=umlFrame;whiteSpace=wrap;html=1;pointerEvents=0;recursiveResize=0;container=1;collapsible=0;width=160;" vertex="1" parent="1">
          <mxGeometry x="825" y="1129" width="685" height="521" as="geometry" />
        </mxCell>
        <mxCell id="inRyh9-KwwsGWARqRv-x-8" value="" style="rhombus;" vertex="1" parent="inRyh9-KwwsGWARqRv-x-7">
          <mxGeometry x="327.5" y="371" width="30" height="30" as="geometry" />
        </mxCell>
        <mxCell id="inRyh9-KwwsGWARqRv-x-14" value="Không tiếp tục chỉnh sửa" style="text;html=1;align=center;verticalAlign=middle;resizable=0;points=[];autosize=1;strokeColor=none;fillColor=none;" vertex="1" parent="inRyh9-KwwsGWARqRv-x-7">
          <mxGeometry x="175" y="441" width="160" height="30" as="geometry" />
        </mxCell>
        <mxCell id="inRyh9-KwwsGWARqRv-x-13" style="edgeStyle=orthogonalEdgeStyle;rounded=0;orthogonalLoop=1;jettySize=auto;html=1;entryX=0.5;entryY=0;entryDx=0;entryDy=0;" edge="1" parent="1" source="inRyh9-KwwsGWARqRv-x-8" target="PTUfjIbUAI21GaRFJDCH-73">
          <mxGeometry relative="1" as="geometry">
            <Array as="points">
              <mxPoint x="1168" y="1600" />
              <mxPoint x="768" y="1600" />
            </Array>
          </mxGeometry>
        </mxCell>
        <mxCell id="inRyh9-KwwsGWARqRv-x-18" style="edgeStyle=orthogonalEdgeStyle;rounded=0;orthogonalLoop=1;jettySize=auto;html=1;entryX=0;entryY=0.5;entryDx=0;entryDy=0;" edge="1" parent="1" source="inRyh9-KwwsGWARqRv-x-17" target="PTUfjIbUAI21GaRFJDCH-73">
          <mxGeometry relative="1" as="geometry">
            <Array as="points">
              <mxPoint x="550" y="1715" />
            </Array>
          </mxGeometry>
        </mxCell>
        <mxCell id="inRyh9-KwwsGWARqRv-x-17" value="Thông tin của bộ từ vựng được chỉnh sửa" style="html=1;align=center;verticalAlign=top;rounded=1;absoluteArcSize=1;arcSize=10;dashed=0;whiteSpace=wrap;" vertex="1" parent="1">
          <mxGeometry x="447.5" y="1598" width="205" height="60" as="geometry" />
        </mxCell>
      </root>
    </mxGraphModel>
  </diagram>
  <diagram id="W6smbcopbMohybJHZ0Gl" name="Admin-Use-Case">
    <mxGraphModel dx="1105" dy="704" grid="1" gridSize="10" guides="1" tooltips="1" connect="1" arrows="1" fold="1" page="1" pageScale="1" pageWidth="3300" pageHeight="4681" math="0" shadow="0">
      <root>
        <mxCell id="0" />
        <mxCell id="1" parent="0" />
        <mxCell id="BS-FdL9r2mnhTxYIZxOD-1" value="Admin&lt;div&gt;&lt;br&gt;&lt;/div&gt;" style="shape=umlActor;verticalLabelPosition=bottom;verticalAlign=top;html=1;outlineConnect=0;" vertex="1" parent="1">
          <mxGeometry x="280" y="615" width="30" height="60" as="geometry" />
        </mxCell>
        <mxCell id="BS-FdL9r2mnhTxYIZxOD-2" value="" style="shape=ellipse;container=1;horizontal=1;horizontalStack=0;resizeParent=1;resizeParentMax=0;resizeLast=0;html=1;dashed=0;collapsible=0;" vertex="1" parent="1">
          <mxGeometry x="510" y="480" width="500" height="330" as="geometry" />
        </mxCell>
        <mxCell id="BS-FdL9r2mnhTxYIZxOD-3" value="Đăng nhập" style="html=1;strokeColor=none;fillColor=none;align=center;verticalAlign=middle;rotatable=0;whiteSpace=wrap;" vertex="1" parent="BS-FdL9r2mnhTxYIZxOD-2">
          <mxGeometry width="500.0000000000001" height="82.5" as="geometry" />
        </mxCell>
        <mxCell id="BS-FdL9r2mnhTxYIZxOD-4" value="" style="line;strokeWidth=1;fillColor=none;rotatable=0;labelPosition=right;points=[];portConstraint=eastwest;dashed=0;resizeWidth=1;" vertex="1" parent="BS-FdL9r2mnhTxYIZxOD-2">
          <mxGeometry x="25.000000000000004" y="82.5" width="450.0000000000001" height="27.500000000000004" as="geometry" />
        </mxCell>
        <mxCell id="BS-FdL9r2mnhTxYIZxOD-5" value="extension points" style="text;html=1;align=center;verticalAlign=middle;rotatable=0;fillColor=none;strokeColor=none;whiteSpace=wrap;" vertex="1" parent="BS-FdL9r2mnhTxYIZxOD-2">
          <mxGeometry y="100.00000000000001" width="500.0000000000001" height="47.14285714285715" as="geometry" />
        </mxCell>
        <mxCell id="BS-FdL9r2mnhTxYIZxOD-6" value="Xem thông tin người dùng&amp;nbsp;" style="text;html=1;align=center;verticalAlign=middle;rotatable=0;spacingLeft=25;fillColor=none;strokeColor=none;whiteSpace=wrap;" vertex="1" parent="BS-FdL9r2mnhTxYIZxOD-2">
          <mxGeometry y="129.9950793650794" width="500.0000000000001" height="47.14285714285715" as="geometry" />
        </mxCell>
        <mxCell id="BS-FdL9r2mnhTxYIZxOD-7" value="Thay đổi thông tin người dùng" style="text;html=1;align=center;verticalAlign=middle;rotatable=0;spacingLeft=25;fillColor=none;strokeColor=none;whiteSpace=wrap;" vertex="1" parent="BS-FdL9r2mnhTxYIZxOD-2">
          <mxGeometry y="160.63365079365084" width="500.0000000000001" height="47.14285714285715" as="geometry" />
        </mxCell>
        <mxCell id="BS-FdL9r2mnhTxYIZxOD-8" value="Xem và chỉnh sửa các bộ từ vựng" style="text;html=1;align=center;verticalAlign=middle;rotatable=0;spacingLeft=25;fillColor=none;strokeColor=none;whiteSpace=wrap;" vertex="1" parent="BS-FdL9r2mnhTxYIZxOD-2">
          <mxGeometry y="189.9977777777778" width="500.0000000000001" height="47.14285714285715" as="geometry" />
        </mxCell>
        <mxCell id="BS-FdL9r2mnhTxYIZxOD-9" value="Xem và chỉnh sửa đoạn chat người dùng" style="text;html=1;align=center;verticalAlign=middle;rotatable=0;spacingLeft=25;fillColor=none;strokeColor=none;whiteSpace=wrap;" vertex="1" parent="BS-FdL9r2mnhTxYIZxOD-2">
          <mxGeometry y="249.99968253968257" width="500.0000000000001" height="47.14285714285715" as="geometry" />
        </mxCell>
        <mxCell id="BS-FdL9r2mnhTxYIZxOD-10" value="Xem và chỉnh sửa từ vựng theo ảnh" style="text;html=1;align=center;verticalAlign=middle;rotatable=0;spacingLeft=25;fillColor=none;strokeColor=none;whiteSpace=wrap;" vertex="1" parent="BS-FdL9r2mnhTxYIZxOD-2">
          <mxGeometry x="-0.003636363636365658" y="220.00412698412697" width="500.0000000000001" height="47.14285714285715" as="geometry" />
        </mxCell>
        <mxCell id="BS-FdL9r2mnhTxYIZxOD-11" value="Phân quyền" style="text;html=1;align=center;verticalAlign=middle;rotatable=0;spacingLeft=25;fillColor=none;strokeColor=none;whiteSpace=wrap;" vertex="1" parent="BS-FdL9r2mnhTxYIZxOD-2">
          <mxGeometry y="282.8596825396826" width="500.0000000000001" height="47.14285714285715" as="geometry" />
        </mxCell>
        <mxCell id="BS-FdL9r2mnhTxYIZxOD-13" value="" style="endArrow=none;html=1;rounded=0;exitX=0.5;exitY=0.5;exitDx=0;exitDy=0;exitPerimeter=0;" edge="1" parent="1" source="BS-FdL9r2mnhTxYIZxOD-1">
          <mxGeometry width="50" height="50" relative="1" as="geometry">
            <mxPoint x="680" y="710" as="sourcePoint" />
            <mxPoint x="510" y="650" as="targetPoint" />
          </mxGeometry>
        </mxCell>
        <mxCell id="BS-FdL9r2mnhTxYIZxOD-14" value="&amp;lt;&amp;lt;extend&amp;gt;&amp;gt;" style="html=1;verticalAlign=bottom;labelBackgroundColor=none;endArrow=open;endFill=0;dashed=1;rounded=0;exitX=0.5;exitY=1;exitDx=0;exitDy=0;" edge="1" parent="1" source="BS-FdL9r2mnhTxYIZxOD-15" target="BS-FdL9r2mnhTxYIZxOD-3">
          <mxGeometry width="160" relative="1" as="geometry">
            <mxPoint x="890" y="890" as="sourcePoint" />
            <mxPoint x="1050" y="890" as="targetPoint" />
          </mxGeometry>
        </mxCell>
        <mxCell id="BS-FdL9r2mnhTxYIZxOD-15" value="Xem thông tin người dùng&lt;div&gt;&lt;br&gt;&lt;/div&gt;" style="ellipse;whiteSpace=wrap;html=1;" vertex="1" parent="1">
          <mxGeometry x="690" y="200" width="140" height="70" as="geometry" />
        </mxCell>
        <mxCell id="BS-FdL9r2mnhTxYIZxOD-16" value="&lt;div&gt;Xem thông tin tài khoản&lt;/div&gt;" style="ellipse;whiteSpace=wrap;html=1;" vertex="1" parent="1">
          <mxGeometry x="990" y="260" width="140" height="70" as="geometry" />
        </mxCell>
        <mxCell id="BS-FdL9r2mnhTxYIZxOD-17" value="&amp;lt;&amp;lt;extend&amp;gt;&amp;gt;" style="html=1;verticalAlign=bottom;labelBackgroundColor=none;endArrow=open;endFill=0;dashed=1;rounded=0;exitX=0.5;exitY=1;exitDx=0;exitDy=0;" edge="1" parent="1" source="BS-FdL9r2mnhTxYIZxOD-16" target="BS-FdL9r2mnhTxYIZxOD-3">
          <mxGeometry width="160" relative="1" as="geometry">
            <mxPoint x="770" y="280" as="sourcePoint" />
            <mxPoint x="770" y="490" as="targetPoint" />
          </mxGeometry>
        </mxCell>
        <mxCell id="BS-FdL9r2mnhTxYIZxOD-18" value="&amp;lt;&amp;lt;extend&amp;gt;&amp;gt;" style="html=1;verticalAlign=bottom;labelBackgroundColor=none;endArrow=open;endFill=0;dashed=1;rounded=0;exitX=0.5;exitY=1;exitDx=0;exitDy=0;entryX=1;entryY=0;entryDx=0;entryDy=0;" edge="1" source="BS-FdL9r2mnhTxYIZxOD-19" parent="1" target="BS-FdL9r2mnhTxYIZxOD-6">
          <mxGeometry width="160" relative="1" as="geometry">
            <mxPoint x="1440" y="1060" as="sourcePoint" />
            <mxPoint x="1310" y="650" as="targetPoint" />
          </mxGeometry>
        </mxCell>
        <mxCell id="BS-FdL9r2mnhTxYIZxOD-19" value="&lt;div&gt;Thay đỏi thông tin&amp;nbsp; tài khoản&lt;/div&gt;" style="ellipse;whiteSpace=wrap;html=1;" vertex="1" parent="1">
          <mxGeometry x="1240" y="370" width="140" height="70" as="geometry" />
        </mxCell>
        <mxCell id="BS-FdL9r2mnhTxYIZxOD-20" value="Thay đổi thông tin cá nhân&amp;nbsp;" style="ellipse;whiteSpace=wrap;html=1;" vertex="1" parent="1">
          <mxGeometry x="1460" y="190" width="140" height="70" as="geometry" />
        </mxCell>
        <mxCell id="BS-FdL9r2mnhTxYIZxOD-21" value="Thay đổi thông tin mật khẩu" style="ellipse;whiteSpace=wrap;html=1;" vertex="1" parent="1">
          <mxGeometry x="1480" y="410" width="140" height="70" as="geometry" />
        </mxCell>
        <mxCell id="BS-FdL9r2mnhTxYIZxOD-22" value="&amp;lt;&amp;lt;include&amp;gt;&amp;gt;" style="html=1;verticalAlign=bottom;labelBackgroundColor=none;endArrow=open;endFill=0;dashed=1;rounded=0;exitX=1;exitY=0;exitDx=0;exitDy=0;entryX=0.073;entryY=0.789;entryDx=0;entryDy=0;entryPerimeter=0;" edge="1" parent="1" source="BS-FdL9r2mnhTxYIZxOD-19" target="BS-FdL9r2mnhTxYIZxOD-20">
          <mxGeometry width="160" relative="1" as="geometry">
            <mxPoint x="1440" y="290" as="sourcePoint" />
            <mxPoint x="1600" y="290" as="targetPoint" />
          </mxGeometry>
        </mxCell>
        <mxCell id="BS-FdL9r2mnhTxYIZxOD-23" value="&amp;lt;&amp;lt;include&amp;gt;&amp;gt;" style="html=1;verticalAlign=bottom;labelBackgroundColor=none;endArrow=open;endFill=0;dashed=1;rounded=0;exitX=1;exitY=1;exitDx=0;exitDy=0;entryX=0;entryY=0.5;entryDx=0;entryDy=0;" edge="1" parent="1" source="BS-FdL9r2mnhTxYIZxOD-19" target="BS-FdL9r2mnhTxYIZxOD-21">
          <mxGeometry width="160" relative="1" as="geometry">
            <mxPoint x="1369" y="390" as="sourcePoint" />
            <mxPoint x="1480" y="255" as="targetPoint" />
          </mxGeometry>
        </mxCell>
        <mxCell id="BS-FdL9r2mnhTxYIZxOD-24" value="Chỉnh sửa thông tin&amp;nbsp;" style="ellipse;whiteSpace=wrap;html=1;" vertex="1" parent="1">
          <mxGeometry x="1230" y="660" width="140" height="70" as="geometry" />
        </mxCell>
        <mxCell id="BS-FdL9r2mnhTxYIZxOD-25" value="&amp;lt;&amp;lt;extend&amp;gt;&amp;gt;" style="html=1;verticalAlign=bottom;labelBackgroundColor=none;endArrow=open;endFill=0;dashed=1;rounded=0;exitX=0;exitY=0.5;exitDx=0;exitDy=0;entryX=1;entryY=0.75;entryDx=0;entryDy=0;" edge="1" parent="1" source="BS-FdL9r2mnhTxYIZxOD-24" target="BS-FdL9r2mnhTxYIZxOD-7">
          <mxGeometry width="160" relative="1" as="geometry">
            <mxPoint x="1320" y="450" as="sourcePoint" />
            <mxPoint x="1020" y="620" as="targetPoint" />
          </mxGeometry>
        </mxCell>
        <mxCell id="BS-FdL9r2mnhTxYIZxOD-26" value="&amp;lt;&amp;lt;include&amp;gt;&amp;gt;" style="html=1;verticalAlign=bottom;labelBackgroundColor=none;endArrow=open;endFill=0;dashed=1;rounded=0;exitX=1;exitY=0;exitDx=0;exitDy=0;entryX=0;entryY=0.5;entryDx=0;entryDy=0;" edge="1" parent="1" source="BS-FdL9r2mnhTxYIZxOD-24" target="BS-FdL9r2mnhTxYIZxOD-27">
          <mxGeometry width="160" relative="1" as="geometry">
            <mxPoint x="1400" y="705" as="sourcePoint" />
            <mxPoint x="1511" y="570" as="targetPoint" />
          </mxGeometry>
        </mxCell>
        <mxCell id="BS-FdL9r2mnhTxYIZxOD-27" value="Chỉnh sửa thông tin bộ từ vựng" style="ellipse;whiteSpace=wrap;html=1;" vertex="1" parent="1">
          <mxGeometry x="1540" y="545" width="140" height="70" as="geometry" />
        </mxCell>
        <mxCell id="BS-FdL9r2mnhTxYIZxOD-28" value="Chỉnh sửa thông tin từ vựng theo ảnh" style="ellipse;whiteSpace=wrap;html=1;" vertex="1" parent="1">
          <mxGeometry x="1540" y="675" width="140" height="70" as="geometry" />
        </mxCell>
        <mxCell id="BS-FdL9r2mnhTxYIZxOD-29" value="&amp;lt;&amp;lt;include&amp;gt;&amp;gt;" style="html=1;verticalAlign=bottom;labelBackgroundColor=none;endArrow=open;endFill=0;dashed=1;rounded=0;exitX=0.994;exitY=0.668;exitDx=0;exitDy=0;entryX=0;entryY=0.5;entryDx=0;entryDy=0;exitPerimeter=0;" edge="1" parent="1" source="BS-FdL9r2mnhTxYIZxOD-24" target="BS-FdL9r2mnhTxYIZxOD-28">
          <mxGeometry width="160" relative="1" as="geometry">
            <mxPoint x="1359" y="680" as="sourcePoint" />
            <mxPoint x="1550" y="590" as="targetPoint" />
          </mxGeometry>
        </mxCell>
        <mxCell id="BS-FdL9r2mnhTxYIZxOD-30" value="Chỉnh sửa thông tin đoạn chat người dùng" style="ellipse;whiteSpace=wrap;html=1;" vertex="1" parent="1">
          <mxGeometry x="1550" y="810" width="140" height="70" as="geometry" />
        </mxCell>
        <mxCell id="BS-FdL9r2mnhTxYIZxOD-31" value="&amp;lt;&amp;lt;include&amp;gt;&amp;gt;" style="html=1;verticalAlign=bottom;labelBackgroundColor=none;endArrow=open;endFill=0;dashed=1;rounded=0;exitX=0.5;exitY=1;exitDx=0;exitDy=0;entryX=0;entryY=0;entryDx=0;entryDy=0;" edge="1" parent="1" source="BS-FdL9r2mnhTxYIZxOD-24" target="BS-FdL9r2mnhTxYIZxOD-30">
          <mxGeometry width="160" relative="1" as="geometry">
            <mxPoint x="1379" y="717" as="sourcePoint" />
            <mxPoint x="1550" y="720" as="targetPoint" />
          </mxGeometry>
        </mxCell>
        <mxCell id="BS-FdL9r2mnhTxYIZxOD-32" value="&lt;div&gt;Phân quyền&lt;/div&gt;" style="ellipse;whiteSpace=wrap;html=1;" vertex="1" parent="1">
          <mxGeometry x="1090" y="960" width="140" height="70" as="geometry" />
        </mxCell>
        <mxCell id="BS-FdL9r2mnhTxYIZxOD-33" value="&amp;lt;&amp;lt;extend&amp;gt;&amp;gt;" style="html=1;verticalAlign=bottom;labelBackgroundColor=none;endArrow=open;endFill=0;dashed=1;rounded=0;exitX=0;exitY=0;exitDx=0;exitDy=0;entryX=0.5;entryY=1;entryDx=0;entryDy=0;" edge="1" parent="1" source="BS-FdL9r2mnhTxYIZxOD-32" target="BS-FdL9r2mnhTxYIZxOD-11">
          <mxGeometry width="160" relative="1" as="geometry">
            <mxPoint x="1240" y="705" as="sourcePoint" />
            <mxPoint x="1020" y="686" as="targetPoint" />
          </mxGeometry>
        </mxCell>
      </root>
    </mxGraphModel>
  </diagram>
  <diagram id="OTARB8kJM0MhROYiDxRM" name="Flash-card-create">
    <mxGraphModel dx="2100" dy="1338" grid="0" gridSize="10" guides="1" tooltips="1" connect="1" arrows="1" fold="1" page="1" pageScale="1" pageWidth="3300" pageHeight="4681" math="0" shadow="0">
      <root>
        <mxCell id="0" />
        <mxCell id="1" parent="0" />
        <mxCell id="QSO-zxup-gv_g0abaexU-4" style="edgeStyle=orthogonalEdgeStyle;rounded=0;orthogonalLoop=1;jettySize=auto;html=1;entryX=0.5;entryY=0;entryDx=0;entryDy=0;" edge="1" parent="1" source="HCkJR66s3Qs8bX_0nwaw-2" target="QSO-zxup-gv_g0abaexU-1">
          <mxGeometry relative="1" as="geometry" />
        </mxCell>
        <mxCell id="HCkJR66s3Qs8bX_0nwaw-2" value="" style="ellipse;fillColor=strokeColor;html=1;" vertex="1" parent="1">
          <mxGeometry x="464" y="354" width="30" height="30" as="geometry" />
        </mxCell>
        <mxCell id="QSO-zxup-gv_g0abaexU-5" style="edgeStyle=orthogonalEdgeStyle;rounded=0;orthogonalLoop=1;jettySize=auto;html=1;" edge="1" parent="1" source="QSO-zxup-gv_g0abaexU-1">
          <mxGeometry relative="1" as="geometry">
            <mxPoint x="479" y="622.3999938964844" as="targetPoint" />
          </mxGeometry>
        </mxCell>
        <mxCell id="QSO-zxup-gv_g0abaexU-1" value="Người dùng nhập form thông tin về tiêu đề và mô tả của bộ từ vựng&amp;nbsp;" style="html=1;align=center;verticalAlign=top;rounded=1;absoluteArcSize=1;arcSize=10;dashed=0;whiteSpace=wrap;" vertex="1" parent="1">
          <mxGeometry x="400" y="463" width="158" height="58" as="geometry" />
        </mxCell>
        <mxCell id="QSO-zxup-gv_g0abaexU-3" style="edgeStyle=orthogonalEdgeStyle;rounded=0;orthogonalLoop=1;jettySize=auto;html=1;entryX=0;entryY=0.5;entryDx=0;entryDy=0;" edge="1" parent="1" source="QSO-zxup-gv_g0abaexU-2" target="HCkJR66s3Qs8bX_0nwaw-2">
          <mxGeometry relative="1" as="geometry" />
        </mxCell>
        <mxCell id="QSO-zxup-gv_g0abaexU-2" value="Người dùng muốn tạo ra bộ từ mới&amp;nbsp;" style="html=1;align=center;verticalAlign=top;rounded=1;absoluteArcSize=1;arcSize=10;dashed=0;whiteSpace=wrap;" vertex="1" parent="1">
          <mxGeometry x="172" y="349" width="140" height="40" as="geometry" />
        </mxCell>
        <mxCell id="QSO-zxup-gv_g0abaexU-7" style="edgeStyle=orthogonalEdgeStyle;rounded=0;orthogonalLoop=1;jettySize=auto;html=1;entryX=0;entryY=0.5;entryDx=0;entryDy=0;" edge="1" parent="1" source="QSO-zxup-gv_g0abaexU-6" target="QSO-zxup-gv_g0abaexU-1">
          <mxGeometry relative="1" as="geometry">
            <Array as="points">
              <mxPoint x="335" y="640" />
              <mxPoint x="335" y="492" />
            </Array>
          </mxGeometry>
        </mxCell>
        <mxCell id="QSO-zxup-gv_g0abaexU-10" style="edgeStyle=orthogonalEdgeStyle;rounded=0;orthogonalLoop=1;jettySize=auto;html=1;" edge="1" parent="1" source="QSO-zxup-gv_g0abaexU-6">
          <mxGeometry relative="1" as="geometry">
            <mxPoint x="479" y="773.6000366210938" as="targetPoint" />
          </mxGeometry>
        </mxCell>
        <mxCell id="QSO-zxup-gv_g0abaexU-6" value="" style="rhombus;" vertex="1" parent="1">
          <mxGeometry x="464" y="625" width="30" height="30" as="geometry" />
        </mxCell>
        <mxCell id="QSO-zxup-gv_g0abaexU-8" value="Sai định dạng" style="text;html=1;align=center;verticalAlign=middle;resizable=0;points=[];autosize=1;strokeColor=none;fillColor=none;" vertex="1" parent="1">
          <mxGeometry x="338" y="610" width="91" height="26" as="geometry" />
        </mxCell>
        <mxCell id="QSO-zxup-gv_g0abaexU-12" style="edgeStyle=orthogonalEdgeStyle;rounded=0;orthogonalLoop=1;jettySize=auto;html=1;" edge="1" parent="1" source="QSO-zxup-gv_g0abaexU-11">
          <mxGeometry relative="1" as="geometry">
            <mxPoint x="479" y="884.8000183105469" as="targetPoint" />
          </mxGeometry>
        </mxCell>
        <mxCell id="QSO-zxup-gv_g0abaexU-13" style="edgeStyle=orthogonalEdgeStyle;rounded=0;orthogonalLoop=1;jettySize=auto;html=1;" edge="1" parent="1" source="QSO-zxup-gv_g0abaexU-11">
          <mxGeometry relative="1" as="geometry">
            <mxPoint x="244" y="788" as="targetPoint" />
          </mxGeometry>
        </mxCell>
        <mxCell id="QSO-zxup-gv_g0abaexU-11" value="" style="rhombus;" vertex="1" parent="1">
          <mxGeometry x="464" y="773" width="30" height="30" as="geometry" />
        </mxCell>
        <mxCell id="QSO-zxup-gv_g0abaexU-14" value="Người dùng không thêm từ&amp;nbsp;" style="text;html=1;align=center;verticalAlign=middle;resizable=0;points=[];autosize=1;strokeColor=none;fillColor=none;" vertex="1" parent="1">
          <mxGeometry x="307" y="756" width="166" height="26" as="geometry" />
        </mxCell>
        <mxCell id="QSO-zxup-gv_g0abaexU-15" value="" style="ellipse;html=1;shape=endState;fillColor=strokeColor;" vertex="1" parent="1">
          <mxGeometry x="215" y="773" width="30" height="30" as="geometry" />
        </mxCell>
        <mxCell id="QSO-zxup-gv_g0abaexU-17" style="edgeStyle=orthogonalEdgeStyle;rounded=0;orthogonalLoop=1;jettySize=auto;html=1;entryX=0.5;entryY=0;entryDx=0;entryDy=0;" edge="1" parent="1" source="QSO-zxup-gv_g0abaexU-16" target="QSO-zxup-gv_g0abaexU-15">
          <mxGeometry relative="1" as="geometry" />
        </mxCell>
        <mxCell id="QSO-zxup-gv_g0abaexU-16" value="Người dùng có bộ từ vựng mới không chứa từ vựng" style="html=1;align=center;verticalAlign=top;rounded=1;absoluteArcSize=1;arcSize=10;dashed=0;whiteSpace=wrap;" vertex="1" parent="1">
          <mxGeometry x="71" y="655" width="137" height="56" as="geometry" />
        </mxCell>
        <mxCell id="QSO-zxup-gv_g0abaexU-19" value="For&amp;nbsp;" style="shape=umlFrame;whiteSpace=wrap;html=1;pointerEvents=0;recursiveResize=0;container=1;collapsible=0;width=160;" vertex="1" parent="1">
          <mxGeometry x="246.5" y="829" width="465" height="515" as="geometry" />
        </mxCell>
        <mxCell id="QSO-zxup-gv_g0abaexU-23" style="edgeStyle=orthogonalEdgeStyle;rounded=0;orthogonalLoop=1;jettySize=auto;html=1;entryX=0.5;entryY=0;entryDx=0;entryDy=0;" edge="1" parent="QSO-zxup-gv_g0abaexU-19" source="QSO-zxup-gv_g0abaexU-20" target="QSO-zxup-gv_g0abaexU-22">
          <mxGeometry relative="1" as="geometry" />
        </mxCell>
        <mxCell id="QSO-zxup-gv_g0abaexU-20" value="Nhập thông tin từ mới&amp;nbsp;" style="html=1;align=center;verticalAlign=top;rounded=1;absoluteArcSize=1;arcSize=10;dashed=0;whiteSpace=wrap;" vertex="1" parent="QSO-zxup-gv_g0abaexU-19">
          <mxGeometry x="164" y="55" width="137" height="56" as="geometry" />
        </mxCell>
        <mxCell id="QSO-zxup-gv_g0abaexU-25" style="edgeStyle=orthogonalEdgeStyle;rounded=0;orthogonalLoop=1;jettySize=auto;html=1;entryX=0;entryY=0.5;entryDx=0;entryDy=0;" edge="1" parent="QSO-zxup-gv_g0abaexU-19" source="QSO-zxup-gv_g0abaexU-22" target="QSO-zxup-gv_g0abaexU-20">
          <mxGeometry relative="1" as="geometry">
            <Array as="points">
              <mxPoint x="82" y="239" />
              <mxPoint x="82" y="83" />
            </Array>
          </mxGeometry>
        </mxCell>
        <mxCell id="QSO-zxup-gv_g0abaexU-29" style="edgeStyle=orthogonalEdgeStyle;rounded=0;orthogonalLoop=1;jettySize=auto;html=1;entryX=0.5;entryY=0;entryDx=0;entryDy=0;" edge="1" parent="QSO-zxup-gv_g0abaexU-19" source="QSO-zxup-gv_g0abaexU-22" target="QSO-zxup-gv_g0abaexU-28">
          <mxGeometry relative="1" as="geometry" />
        </mxCell>
        <mxCell id="QSO-zxup-gv_g0abaexU-22" value="" style="rhombus;" vertex="1" parent="QSO-zxup-gv_g0abaexU-19">
          <mxGeometry x="217.5" y="224" width="30" height="30" as="geometry" />
        </mxCell>
        <mxCell id="QSO-zxup-gv_g0abaexU-26" value="Thông tin người dùng &lt;br&gt;sai định dạng" style="text;html=1;align=center;verticalAlign=middle;resizable=0;points=[];autosize=1;strokeColor=none;fillColor=none;" vertex="1" parent="QSO-zxup-gv_g0abaexU-19">
          <mxGeometry x="84.5" y="194" width="133" height="41" as="geometry" />
        </mxCell>
        <mxCell id="QSO-zxup-gv_g0abaexU-31" style="edgeStyle=orthogonalEdgeStyle;rounded=0;orthogonalLoop=1;jettySize=auto;html=1;entryX=0;entryY=0.5;entryDx=0;entryDy=0;" edge="1" parent="QSO-zxup-gv_g0abaexU-19" source="QSO-zxup-gv_g0abaexU-28" target="QSO-zxup-gv_g0abaexU-30">
          <mxGeometry relative="1" as="geometry" />
        </mxCell>
        <mxCell id="QSO-zxup-gv_g0abaexU-28" value="Hiện thị từ thông tin từ vửa nhập lên màn hình" style="html=1;align=center;verticalAlign=top;rounded=1;absoluteArcSize=1;arcSize=10;dashed=0;whiteSpace=wrap;" vertex="1" parent="QSO-zxup-gv_g0abaexU-19">
          <mxGeometry x="164" y="311" width="137" height="56" as="geometry" />
        </mxCell>
        <mxCell id="QSO-zxup-gv_g0abaexU-32" style="edgeStyle=orthogonalEdgeStyle;rounded=0;orthogonalLoop=1;jettySize=auto;html=1;entryX=1;entryY=0.5;entryDx=0;entryDy=0;" edge="1" parent="QSO-zxup-gv_g0abaexU-19" source="QSO-zxup-gv_g0abaexU-30" target="QSO-zxup-gv_g0abaexU-20">
          <mxGeometry relative="1" as="geometry">
            <Array as="points">
              <mxPoint x="400" y="487" />
              <mxPoint x="400" y="83" />
            </Array>
          </mxGeometry>
        </mxCell>
        <mxCell id="QSO-zxup-gv_g0abaexU-34" style="edgeStyle=orthogonalEdgeStyle;rounded=0;orthogonalLoop=1;jettySize=auto;html=1;" edge="1" parent="QSO-zxup-gv_g0abaexU-19" source="QSO-zxup-gv_g0abaexU-30">
          <mxGeometry relative="1" as="geometry">
            <mxPoint x="232.49999999999977" y="620.4706600413601" as="targetPoint" />
          </mxGeometry>
        </mxCell>
        <mxCell id="QSO-zxup-gv_g0abaexU-30" value="" style="rhombus;direction=south;" vertex="1" parent="QSO-zxup-gv_g0abaexU-19">
          <mxGeometry x="217.5" y="472" width="30" height="30" as="geometry" />
        </mxCell>
        <mxCell id="QSO-zxup-gv_g0abaexU-33" value="Tiếp tục thêm từ&amp;nbsp;" style="text;html=1;align=center;verticalAlign=middle;resizable=0;points=[];autosize=1;strokeColor=none;fillColor=none;" vertex="1" parent="QSO-zxup-gv_g0abaexU-19">
          <mxGeometry x="274.5" y="458" width="108" height="26" as="geometry" />
        </mxCell>
        <mxCell id="QSO-zxup-gv_g0abaexU-35" value="" style="ellipse;html=1;shape=endState;fillColor=strokeColor;" vertex="1" parent="1">
          <mxGeometry x="464" y="1447" width="30" height="30" as="geometry" />
        </mxCell>
        <mxCell id="QSO-zxup-gv_g0abaexU-37" style="edgeStyle=orthogonalEdgeStyle;rounded=0;orthogonalLoop=1;jettySize=auto;html=1;entryX=1;entryY=0.5;entryDx=0;entryDy=0;" edge="1" parent="1" source="QSO-zxup-gv_g0abaexU-36" target="QSO-zxup-gv_g0abaexU-35">
          <mxGeometry relative="1" as="geometry" />
        </mxCell>
        <mxCell id="QSO-zxup-gv_g0abaexU-36" value="Người dùng có bộ từ vựng mới chứa thông tin vừa nhập" style="html=1;align=center;verticalAlign=top;rounded=1;absoluteArcSize=1;arcSize=10;dashed=0;whiteSpace=wrap;" vertex="1" parent="1">
          <mxGeometry x="606" y="1434" width="137" height="56" as="geometry" />
        </mxCell>
      </root>
    </mxGraphModel>
  </diagram>
  <diagram id="JtfzcerUCH6rj-XtBVq5" name="Flash-card-learn">
    <mxGraphModel dx="1050" dy="669" grid="0" gridSize="10" guides="1" tooltips="1" connect="1" arrows="1" fold="1" page="1" pageScale="1" pageWidth="3300" pageHeight="4681" math="0" shadow="0">
      <root>
        <mxCell id="0" />
        <mxCell id="1" parent="0" />
        <mxCell id="_RmzvKhJNI-XU3Kx10wQ-4" style="edgeStyle=orthogonalEdgeStyle;rounded=0;orthogonalLoop=1;jettySize=auto;html=1;entryX=0.5;entryY=0;entryDx=0;entryDy=0;" parent="1" source="_RmzvKhJNI-XU3Kx10wQ-1" target="_RmzvKhJNI-XU3Kx10wQ-5" edge="1">
          <mxGeometry relative="1" as="geometry">
            <mxPoint x="478" y="256.8000183105469" as="targetPoint" />
          </mxGeometry>
        </mxCell>
        <mxCell id="_RmzvKhJNI-XU3Kx10wQ-1" value="" style="ellipse;fillColor=strokeColor;html=1;" parent="1" vertex="1">
          <mxGeometry x="463" y="146" width="30" height="30" as="geometry" />
        </mxCell>
        <mxCell id="_RmzvKhJNI-XU3Kx10wQ-3" style="edgeStyle=orthogonalEdgeStyle;rounded=0;orthogonalLoop=1;jettySize=auto;html=1;entryX=0;entryY=0.5;entryDx=0;entryDy=0;" parent="1" source="_RmzvKhJNI-XU3Kx10wQ-2" target="_RmzvKhJNI-XU3Kx10wQ-1" edge="1">
          <mxGeometry relative="1" as="geometry" />
        </mxCell>
        <mxCell id="_RmzvKhJNI-XU3Kx10wQ-2" value="Người dùng mong muốn học và xem bộ từ vựng cho trước" style="html=1;align=center;verticalAlign=top;rounded=1;absoluteArcSize=1;arcSize=10;dashed=0;whiteSpace=wrap;" parent="1" vertex="1">
          <mxGeometry x="155" y="130" width="156" height="62" as="geometry" />
        </mxCell>
        <mxCell id="_RmzvKhJNI-XU3Kx10wQ-9" style="edgeStyle=orthogonalEdgeStyle;rounded=0;orthogonalLoop=1;jettySize=auto;html=1;entryX=0.5;entryY=0;entryDx=0;entryDy=0;" parent="1" source="_RmzvKhJNI-XU3Kx10wQ-5" target="_RmzvKhJNI-XU3Kx10wQ-8" edge="1">
          <mxGeometry relative="1" as="geometry" />
        </mxCell>
        <mxCell id="_RmzvKhJNI-XU3Kx10wQ-5" value="Lựa chọn bộ từ vựng người dùng&amp;nbsp;" style="html=1;align=center;verticalAlign=top;rounded=1;absoluteArcSize=1;arcSize=10;dashed=0;whiteSpace=wrap;" parent="1" vertex="1">
          <mxGeometry x="400" y="274" width="156" height="62" as="geometry" />
        </mxCell>
        <mxCell id="_RmzvKhJNI-XU3Kx10wQ-6" value="For" style="shape=umlFrame;whiteSpace=wrap;html=1;pointerEvents=0;recursiveResize=0;container=1;collapsible=0;width=160;" parent="1" vertex="1">
          <mxGeometry x="200" y="366" width="602" height="272" as="geometry" />
        </mxCell>
        <mxCell id="_RmzvKhJNI-XU3Kx10wQ-12" style="edgeStyle=orthogonalEdgeStyle;rounded=0;orthogonalLoop=1;jettySize=auto;html=1;entryX=0.5;entryY=0;entryDx=0;entryDy=0;" parent="_RmzvKhJNI-XU3Kx10wQ-6" source="_RmzvKhJNI-XU3Kx10wQ-8" target="_RmzvKhJNI-XU3Kx10wQ-11" edge="1">
          <mxGeometry relative="1" as="geometry" />
        </mxCell>
        <mxCell id="_RmzvKhJNI-XU3Kx10wQ-8" value="Hiển thị từ vựng&amp;nbsp;" style="html=1;align=center;verticalAlign=top;rounded=1;absoluteArcSize=1;arcSize=10;dashed=0;whiteSpace=wrap;" parent="_RmzvKhJNI-XU3Kx10wQ-6" vertex="1">
          <mxGeometry x="200" y="54" width="156" height="62" as="geometry" />
        </mxCell>
        <mxCell id="_RmzvKhJNI-XU3Kx10wQ-13" style="edgeStyle=orthogonalEdgeStyle;rounded=0;orthogonalLoop=1;jettySize=auto;html=1;entryX=1;entryY=0.5;entryDx=0;entryDy=0;" parent="_RmzvKhJNI-XU3Kx10wQ-6" source="_RmzvKhJNI-XU3Kx10wQ-11" target="_RmzvKhJNI-XU3Kx10wQ-8" edge="1">
          <mxGeometry relative="1" as="geometry">
            <Array as="points">
              <mxPoint x="376" y="191" />
              <mxPoint x="376" y="85" />
            </Array>
          </mxGeometry>
        </mxCell>
        <mxCell id="_RmzvKhJNI-XU3Kx10wQ-15" style="edgeStyle=orthogonalEdgeStyle;rounded=0;orthogonalLoop=1;jettySize=auto;html=1;" parent="_RmzvKhJNI-XU3Kx10wQ-6" source="_RmzvKhJNI-XU3Kx10wQ-11" edge="1">
          <mxGeometry relative="1" as="geometry">
            <mxPoint x="278" y="336.3999938964844" as="targetPoint" />
          </mxGeometry>
        </mxCell>
        <mxCell id="_RmzvKhJNI-XU3Kx10wQ-11" value="" style="rhombus;" parent="_RmzvKhJNI-XU3Kx10wQ-6" vertex="1">
          <mxGeometry x="263" y="176" width="30" height="30" as="geometry" />
        </mxCell>
        <mxCell id="_RmzvKhJNI-XU3Kx10wQ-14" value="Chuyển trang" style="text;html=1;align=center;verticalAlign=middle;resizable=0;points=[];autosize=1;strokeColor=none;fillColor=none;" parent="1" vertex="1">
          <mxGeometry x="495" y="566" width="90" height="26" as="geometry" />
        </mxCell>
        <mxCell id="_RmzvKhJNI-XU3Kx10wQ-16" value="Thoát&amp;nbsp;" style="text;html=1;align=center;verticalAlign=middle;resizable=0;points=[];autosize=1;strokeColor=none;fillColor=none;" parent="1" vertex="1">
          <mxGeometry x="431" y="569" width="52" height="26" as="geometry" />
        </mxCell>
        <mxCell id="_RmzvKhJNI-XU3Kx10wQ-17" value="" style="ellipse;html=1;shape=endState;fillColor=strokeColor;" parent="1" vertex="1">
          <mxGeometry x="463" y="701" width="30" height="30" as="geometry" />
        </mxCell>
        <mxCell id="_RmzvKhJNI-XU3Kx10wQ-19" style="edgeStyle=orthogonalEdgeStyle;rounded=0;orthogonalLoop=1;jettySize=auto;html=1;entryX=1;entryY=0.5;entryDx=0;entryDy=0;" parent="1" source="_RmzvKhJNI-XU3Kx10wQ-18" target="_RmzvKhJNI-XU3Kx10wQ-17" edge="1">
          <mxGeometry relative="1" as="geometry" />
        </mxCell>
        <mxCell id="_RmzvKhJNI-XU3Kx10wQ-18" value="Người dùng trở về màn hình chính" style="html=1;align=center;verticalAlign=top;rounded=1;absoluteArcSize=1;arcSize=10;dashed=0;whiteSpace=wrap;" parent="1" vertex="1">
          <mxGeometry x="585" y="685" width="156" height="62" as="geometry" />
        </mxCell>
      </root>
    </mxGraphModel>
  </diagram>
  <diagram id="UwNf2Qme4OJtn0YbPk4a" name="Carolina-create">
    <mxGraphModel dx="1235" dy="787" grid="0" gridSize="10" guides="1" tooltips="1" connect="1" arrows="1" fold="1" page="1" pageScale="1" pageWidth="3300" pageHeight="4681" math="0" shadow="0">
      <root>
        <mxCell id="0" />
        <mxCell id="1" parent="0" />
        <mxCell id="SO229LbyqDvMqWxkg21R-2" style="edgeStyle=orthogonalEdgeStyle;rounded=0;orthogonalLoop=1;jettySize=auto;html=1;entryX=0.5;entryY=0;entryDx=0;entryDy=0;" parent="1" source="SO229LbyqDvMqWxkg21R-1" edge="1">
          <mxGeometry relative="1" as="geometry">
            <mxPoint x="471" y="213" as="targetPoint" />
          </mxGeometry>
        </mxCell>
        <mxCell id="SO229LbyqDvMqWxkg21R-1" value="" style="ellipse;fillColor=strokeColor;html=1;" parent="1" vertex="1">
          <mxGeometry x="456" y="108" width="30" height="30" as="geometry" />
        </mxCell>
        <mxCell id="SO229LbyqDvMqWxkg21R-5" style="edgeStyle=orthogonalEdgeStyle;rounded=0;orthogonalLoop=1;jettySize=auto;html=1;entryX=0;entryY=0.5;entryDx=0;entryDy=0;" parent="1" source="SO229LbyqDvMqWxkg21R-4" target="SO229LbyqDvMqWxkg21R-1" edge="1">
          <mxGeometry relative="1" as="geometry" />
        </mxCell>
        <mxCell id="SO229LbyqDvMqWxkg21R-4" value="Người dùng đă đăng nhập&amp;nbsp; vào hệ thống" style="html=1;align=center;verticalAlign=top;rounded=1;absoluteArcSize=1;arcSize=10;dashed=0;whiteSpace=wrap;" parent="1" vertex="1">
          <mxGeometry x="189" y="103" width="140" height="40" as="geometry" />
        </mxCell>
        <mxCell id="5FyXZsvHvReuvYy3rW4k-4" style="edgeStyle=orthogonalEdgeStyle;rounded=0;orthogonalLoop=1;jettySize=auto;html=1;entryX=0.5;entryY=0;entryDx=0;entryDy=0;" edge="1" parent="1" source="5FyXZsvHvReuvYy3rW4k-1" target="5FyXZsvHvReuvYy3rW4k-2">
          <mxGeometry relative="1" as="geometry" />
        </mxCell>
        <mxCell id="5FyXZsvHvReuvYy3rW4k-5" style="edgeStyle=orthogonalEdgeStyle;rounded=0;orthogonalLoop=1;jettySize=auto;html=1;entryX=0.5;entryY=0;entryDx=0;entryDy=0;" edge="1" parent="1" source="5FyXZsvHvReuvYy3rW4k-1" target="5FyXZsvHvReuvYy3rW4k-3">
          <mxGeometry relative="1" as="geometry" />
        </mxCell>
        <mxCell id="5FyXZsvHvReuvYy3rW4k-1" value="" style="html=1;points=[];perimeter=orthogonalPerimeter;fillColor=strokeColor;rotation=90;" vertex="1" parent="1">
          <mxGeometry x="468.5" y="179" width="5" height="80" as="geometry" />
        </mxCell>
        <mxCell id="5FyXZsvHvReuvYy3rW4k-2" value="Người dùng điền thông tin vào boxchat" style="html=1;align=center;verticalAlign=top;rounded=1;absoluteArcSize=1;arcSize=10;dashed=0;whiteSpace=wrap;" vertex="1" parent="1">
          <mxGeometry x="249" y="267" width="140" height="40" as="geometry" />
        </mxCell>
        <mxCell id="5FyXZsvHvReuvYy3rW4k-3" value="Người dùng lựa chọn thông tin gợi ý" style="html=1;align=center;verticalAlign=top;rounded=1;absoluteArcSize=1;arcSize=10;dashed=0;whiteSpace=wrap;" vertex="1" parent="1">
          <mxGeometry x="544" y="267" width="140" height="40" as="geometry" />
        </mxCell>
        <mxCell id="5FyXZsvHvReuvYy3rW4k-12" style="edgeStyle=orthogonalEdgeStyle;rounded=0;orthogonalLoop=1;jettySize=auto;html=1;" edge="1" parent="1" source="5FyXZsvHvReuvYy3rW4k-7" target="5FyXZsvHvReuvYy3rW4k-11">
          <mxGeometry relative="1" as="geometry" />
        </mxCell>
        <mxCell id="5FyXZsvHvReuvYy3rW4k-7" value="" style="html=1;points=[];perimeter=orthogonalPerimeter;fillColor=strokeColor;rotation=90;" vertex="1" parent="1">
          <mxGeometry x="468.5" y="369" width="5" height="80" as="geometry" />
        </mxCell>
        <mxCell id="1Pxsu9c5XXF2iD3ZQMFl-4" style="edgeStyle=orthogonalEdgeStyle;rounded=0;orthogonalLoop=1;jettySize=auto;html=1;exitX=0.5;exitY=1;exitDx=0;exitDy=0;entryX=0.5;entryY=0;entryDx=0;entryDy=0;" edge="1" parent="1" source="5FyXZsvHvReuvYy3rW4k-11" target="1Pxsu9c5XXF2iD3ZQMFl-3">
          <mxGeometry relative="1" as="geometry" />
        </mxCell>
        <mxCell id="5FyXZsvHvReuvYy3rW4k-11" value="Hệ thống trả lời câu hỏi của người dùng" style="html=1;align=center;verticalAlign=top;rounded=1;absoluteArcSize=1;arcSize=10;dashed=0;whiteSpace=wrap;" vertex="1" parent="1">
          <mxGeometry x="401" y="524" width="140" height="40" as="geometry" />
        </mxCell>
        <mxCell id="5FyXZsvHvReuvYy3rW4k-13" style="edgeStyle=orthogonalEdgeStyle;rounded=0;orthogonalLoop=1;jettySize=auto;html=1;entryX=0.62;entryY=-0.048;entryDx=0;entryDy=0;entryPerimeter=0;" edge="1" parent="1" source="5FyXZsvHvReuvYy3rW4k-3" target="5FyXZsvHvReuvYy3rW4k-7">
          <mxGeometry relative="1" as="geometry">
            <Array as="points">
              <mxPoint x="614" y="410" />
            </Array>
          </mxGeometry>
        </mxCell>
        <mxCell id="5FyXZsvHvReuvYy3rW4k-14" style="edgeStyle=orthogonalEdgeStyle;rounded=0;orthogonalLoop=1;jettySize=auto;html=1;entryX=0.46;entryY=1.032;entryDx=0;entryDy=0;entryPerimeter=0;" edge="1" parent="1" source="5FyXZsvHvReuvYy3rW4k-2" target="5FyXZsvHvReuvYy3rW4k-7">
          <mxGeometry relative="1" as="geometry">
            <Array as="points">
              <mxPoint x="319" y="409" />
            </Array>
          </mxGeometry>
        </mxCell>
        <mxCell id="1Pxsu9c5XXF2iD3ZQMFl-2" value="For" style="shape=umlFrame;whiteSpace=wrap;html=1;pointerEvents=0;recursiveResize=0;container=1;collapsible=0;width=160;" vertex="1" parent="1">
          <mxGeometry x="201" y="177" width="557" height="412" as="geometry" />
        </mxCell>
        <mxCell id="1Pxsu9c5XXF2iD3ZQMFl-3" value="" style="ellipse;html=1;shape=endState;fillColor=strokeColor;" vertex="1" parent="1">
          <mxGeometry x="456" y="676" width="30" height="30" as="geometry" />
        </mxCell>
        <mxCell id="1Pxsu9c5XXF2iD3ZQMFl-6" style="edgeStyle=orthogonalEdgeStyle;rounded=0;orthogonalLoop=1;jettySize=auto;html=1;entryX=1;entryY=0.5;entryDx=0;entryDy=0;" edge="1" parent="1" source="1Pxsu9c5XXF2iD3ZQMFl-5" target="1Pxsu9c5XXF2iD3ZQMFl-3">
          <mxGeometry relative="1" as="geometry" />
        </mxCell>
        <mxCell id="1Pxsu9c5XXF2iD3ZQMFl-5" value="Người dùng nhận được thông tin đã hỏi" style="html=1;align=center;verticalAlign=top;rounded=1;absoluteArcSize=1;arcSize=10;dashed=0;whiteSpace=wrap;" vertex="1" parent="1">
          <mxGeometry x="614" y="671" width="140" height="40" as="geometry" />
        </mxCell>
      </root>
    </mxGraphModel>
  </diagram>
  <diagram id="ExILGxp6mbsvVdkQDVpG" name="Mastermind">
    <mxGraphModel dx="1909" dy="1216" grid="0" gridSize="10" guides="1" tooltips="1" connect="1" arrows="1" fold="1" page="1" pageScale="1" pageWidth="3300" pageHeight="4681" math="0" shadow="0">
      <root>
        <mxCell id="0" />
        <mxCell id="1" parent="0" />
        <mxCell id="QNkYNX0pxi8q770GDBdL-20" style="edgeStyle=orthogonalEdgeStyle;rounded=0;orthogonalLoop=1;jettySize=auto;html=1;" edge="1" parent="1" source="QNkYNX0pxi8q770GDBdL-2">
          <mxGeometry relative="1" as="geometry">
            <mxPoint x="542" y="206.40000915527344" as="targetPoint" />
          </mxGeometry>
        </mxCell>
        <mxCell id="QNkYNX0pxi8q770GDBdL-2" value="" style="ellipse;fillColor=strokeColor;html=1;" vertex="1" parent="1">
          <mxGeometry x="527" y="105" width="30" height="30" as="geometry" />
        </mxCell>
        <mxCell id="QNkYNX0pxi8q770GDBdL-3" style="edgeStyle=orthogonalEdgeStyle;rounded=0;orthogonalLoop=1;jettySize=auto;html=1;entryX=0;entryY=0.5;entryDx=0;entryDy=0;" edge="1" parent="1" source="QNkYNX0pxi8q770GDBdL-4" target="QNkYNX0pxi8q770GDBdL-2">
          <mxGeometry relative="1" as="geometry" />
        </mxCell>
        <mxCell id="QNkYNX0pxi8q770GDBdL-4" value="Người dùng đă đăng nhập&amp;nbsp; vào hệ thống" style="html=1;align=center;verticalAlign=top;rounded=1;absoluteArcSize=1;arcSize=10;dashed=0;whiteSpace=wrap;" vertex="1" parent="1">
          <mxGeometry x="260" y="100" width="140" height="40" as="geometry" />
        </mxCell>
        <mxCell id="QNkYNX0pxi8q770GDBdL-16" value="For" style="shape=umlFrame;whiteSpace=wrap;html=1;pointerEvents=0;recursiveResize=0;container=1;collapsible=0;width=160;" vertex="1" parent="1">
          <mxGeometry x="268" y="688" width="474" height="290" as="geometry" />
        </mxCell>
        <mxCell id="QNkYNX0pxi8q770GDBdL-38" style="edgeStyle=orthogonalEdgeStyle;rounded=0;orthogonalLoop=1;jettySize=auto;html=1;" edge="1" parent="QNkYNX0pxi8q770GDBdL-16" source="QNkYNX0pxi8q770GDBdL-13" target="QNkYNX0pxi8q770GDBdL-37">
          <mxGeometry relative="1" as="geometry" />
        </mxCell>
        <mxCell id="QNkYNX0pxi8q770GDBdL-13" value="Lựa chọn tạo câu tiếp theo" style="html=1;align=center;verticalAlign=top;rounded=1;absoluteArcSize=1;arcSize=10;dashed=0;whiteSpace=wrap;" vertex="1" parent="QNkYNX0pxi8q770GDBdL-16">
          <mxGeometry x="236.5" y="43" width="140" height="40" as="geometry" />
        </mxCell>
        <mxCell id="QNkYNX0pxi8q770GDBdL-37" value="Phát âm câu vừa tạo" style="html=1;align=center;verticalAlign=top;rounded=1;absoluteArcSize=1;arcSize=10;dashed=0;whiteSpace=wrap;" vertex="1" parent="QNkYNX0pxi8q770GDBdL-16">
          <mxGeometry x="236.5" y="166" width="140" height="40" as="geometry" />
        </mxCell>
        <mxCell id="QNkYNX0pxi8q770GDBdL-17" value="" style="ellipse;html=1;shape=endState;fillColor=strokeColor;" vertex="1" parent="1">
          <mxGeometry x="559.5" y="1196" width="30" height="30" as="geometry" />
        </mxCell>
        <mxCell id="QNkYNX0pxi8q770GDBdL-22" style="edgeStyle=orthogonalEdgeStyle;rounded=0;orthogonalLoop=1;jettySize=auto;html=1;" edge="1" parent="1" source="QNkYNX0pxi8q770GDBdL-21">
          <mxGeometry relative="1" as="geometry">
            <mxPoint x="544.5" y="325.6000061035156" as="targetPoint" />
          </mxGeometry>
        </mxCell>
        <mxCell id="QNkYNX0pxi8q770GDBdL-21" value="Lựa chọn mastermind" style="html=1;align=center;verticalAlign=top;rounded=1;absoluteArcSize=1;arcSize=10;dashed=0;whiteSpace=wrap;" vertex="1" parent="1">
          <mxGeometry x="474.5" y="208" width="140" height="40" as="geometry" />
        </mxCell>
        <mxCell id="QNkYNX0pxi8q770GDBdL-27" style="edgeStyle=orthogonalEdgeStyle;rounded=0;orthogonalLoop=1;jettySize=auto;html=1;entryX=0.5;entryY=0;entryDx=0;entryDy=0;" edge="1" parent="1" source="QNkYNX0pxi8q770GDBdL-23" target="QNkYNX0pxi8q770GDBdL-26">
          <mxGeometry relative="1" as="geometry" />
        </mxCell>
        <mxCell id="QNkYNX0pxi8q770GDBdL-23" value="" style="rhombus;" vertex="1" parent="1">
          <mxGeometry x="529.5" y="328" width="30" height="30" as="geometry" />
        </mxCell>
        <mxCell id="QNkYNX0pxi8q770GDBdL-26" value="Hệ thống phát âm thành lời chào" style="html=1;align=center;verticalAlign=top;rounded=1;absoluteArcSize=1;arcSize=10;dashed=0;whiteSpace=wrap;" vertex="1" parent="1">
          <mxGeometry x="611" y="399" width="140" height="40" as="geometry" />
        </mxCell>
        <mxCell id="QNkYNX0pxi8q770GDBdL-35" style="edgeStyle=orthogonalEdgeStyle;rounded=0;orthogonalLoop=1;jettySize=auto;html=1;" edge="1" parent="1" source="QNkYNX0pxi8q770GDBdL-29" target="QNkYNX0pxi8q770GDBdL-13">
          <mxGeometry relative="1" as="geometry" />
        </mxCell>
        <mxCell id="QNkYNX0pxi8q770GDBdL-29" value="" style="html=1;points=[];perimeter=orthogonalPerimeter;fillColor=strokeColor;rotation=90;" vertex="1" parent="1">
          <mxGeometry x="572" y="487" width="5" height="140" as="geometry" />
        </mxCell>
        <mxCell id="QNkYNX0pxi8q770GDBdL-31" style="edgeStyle=orthogonalEdgeStyle;rounded=0;orthogonalLoop=1;jettySize=auto;html=1;entryX=0.78;entryY=0.281;entryDx=0;entryDy=0;entryPerimeter=0;" edge="1" parent="1" source="QNkYNX0pxi8q770GDBdL-26" target="QNkYNX0pxi8q770GDBdL-29">
          <mxGeometry relative="1" as="geometry" />
        </mxCell>
        <mxCell id="QNkYNX0pxi8q770GDBdL-32" style="edgeStyle=orthogonalEdgeStyle;rounded=0;orthogonalLoop=1;jettySize=auto;html=1;entryX=0.3;entryY=0.749;entryDx=0;entryDy=0;entryPerimeter=0;" edge="1" parent="1" source="QNkYNX0pxi8q770GDBdL-23" target="QNkYNX0pxi8q770GDBdL-29">
          <mxGeometry relative="1" as="geometry">
            <Array as="points">
              <mxPoint x="545" y="556" />
            </Array>
          </mxGeometry>
        </mxCell>
        <mxCell id="QNkYNX0pxi8q770GDBdL-34" value="Lựa chọn lời chào" style="text;html=1;align=center;verticalAlign=middle;resizable=0;points=[];autosize=1;strokeColor=none;fillColor=none;" vertex="1" parent="1">
          <mxGeometry x="553" y="312" width="115" height="26" as="geometry" />
        </mxCell>
        <mxCell id="QNkYNX0pxi8q770GDBdL-39" style="edgeStyle=orthogonalEdgeStyle;rounded=0;orthogonalLoop=1;jettySize=auto;html=1;entryX=0.5;entryY=0;entryDx=0;entryDy=0;" edge="1" parent="1" source="QNkYNX0pxi8q770GDBdL-37" target="QNkYNX0pxi8q770GDBdL-17">
          <mxGeometry relative="1" as="geometry" />
        </mxCell>
      </root>
    </mxGraphModel>
  </diagram>
  <diagram id="w_fVLFI8LtaiBD7bG6yA" name="Database">
    <mxGraphModel dx="1235" dy="787" grid="0" gridSize="10" guides="1" tooltips="1" connect="1" arrows="1" fold="1" page="1" pageScale="1" pageWidth="3300" pageHeight="4681" math="0" shadow="0">
      <root>
        <mxCell id="0" />
        <mxCell id="1" parent="0" />
        <mxCell id="3ID8E0WmiKl0YQW7Nhs1-1" value="Bộ từ&amp;nbsp;" style="shape=table;startSize=30;container=1;collapsible=1;childLayout=tableLayout;fixedRows=1;rowLines=0;fontStyle=1;align=center;resizeLast=1;html=1;" vertex="1" parent="1">
          <mxGeometry x="309" y="222" width="180" height="210" as="geometry" />
        </mxCell>
        <mxCell id="3ID8E0WmiKl0YQW7Nhs1-2" value="" style="shape=tableRow;horizontal=0;startSize=0;swimlaneHead=0;swimlaneBody=0;fillColor=none;collapsible=0;dropTarget=0;points=[[0,0.5],[1,0.5]];portConstraint=eastwest;top=0;left=0;right=0;bottom=1;" vertex="1" parent="3ID8E0WmiKl0YQW7Nhs1-1">
          <mxGeometry y="30" width="180" height="30" as="geometry" />
        </mxCell>
        <mxCell id="3ID8E0WmiKl0YQW7Nhs1-3" value="PK" style="shape=partialRectangle;connectable=0;fillColor=none;top=0;left=0;bottom=0;right=0;fontStyle=1;overflow=hidden;whiteSpace=wrap;html=1;" vertex="1" parent="3ID8E0WmiKl0YQW7Nhs1-2">
          <mxGeometry width="30" height="30" as="geometry">
            <mxRectangle width="30" height="30" as="alternateBounds" />
          </mxGeometry>
        </mxCell>
        <mxCell id="3ID8E0WmiKl0YQW7Nhs1-4" value="UniqueID" style="shape=partialRectangle;connectable=0;fillColor=none;top=0;left=0;bottom=0;right=0;align=left;spacingLeft=6;fontStyle=5;overflow=hidden;whiteSpace=wrap;html=1;" vertex="1" parent="3ID8E0WmiKl0YQW7Nhs1-2">
          <mxGeometry x="30" width="150" height="30" as="geometry">
            <mxRectangle width="150" height="30" as="alternateBounds" />
          </mxGeometry>
        </mxCell>
        <mxCell id="3ID8E0WmiKl0YQW7Nhs1-5" value="" style="shape=tableRow;horizontal=0;startSize=0;swimlaneHead=0;swimlaneBody=0;fillColor=none;collapsible=0;dropTarget=0;points=[[0,0.5],[1,0.5]];portConstraint=eastwest;top=0;left=0;right=0;bottom=0;" vertex="1" parent="3ID8E0WmiKl0YQW7Nhs1-1">
          <mxGeometry y="60" width="180" height="30" as="geometry" />
        </mxCell>
        <mxCell id="3ID8E0WmiKl0YQW7Nhs1-6" value="" style="shape=partialRectangle;connectable=0;fillColor=none;top=0;left=0;bottom=0;right=0;editable=1;overflow=hidden;whiteSpace=wrap;html=1;" vertex="1" parent="3ID8E0WmiKl0YQW7Nhs1-5">
          <mxGeometry width="30" height="30" as="geometry">
            <mxRectangle width="30" height="30" as="alternateBounds" />
          </mxGeometry>
        </mxCell>
        <mxCell id="3ID8E0WmiKl0YQW7Nhs1-7" value="Tên bộ từ" style="shape=partialRectangle;connectable=0;fillColor=none;top=0;left=0;bottom=0;right=0;align=left;spacingLeft=6;overflow=hidden;whiteSpace=wrap;html=1;" vertex="1" parent="3ID8E0WmiKl0YQW7Nhs1-5">
          <mxGeometry x="30" width="150" height="30" as="geometry">
            <mxRectangle width="150" height="30" as="alternateBounds" />
          </mxGeometry>
        </mxCell>
        <mxCell id="3ID8E0WmiKl0YQW7Nhs1-8" value="" style="shape=tableRow;horizontal=0;startSize=0;swimlaneHead=0;swimlaneBody=0;fillColor=none;collapsible=0;dropTarget=0;points=[[0,0.5],[1,0.5]];portConstraint=eastwest;top=0;left=0;right=0;bottom=0;" vertex="1" parent="3ID8E0WmiKl0YQW7Nhs1-1">
          <mxGeometry y="90" width="180" height="30" as="geometry" />
        </mxCell>
        <mxCell id="3ID8E0WmiKl0YQW7Nhs1-9" value="" style="shape=partialRectangle;connectable=0;fillColor=none;top=0;left=0;bottom=0;right=0;editable=1;overflow=hidden;whiteSpace=wrap;html=1;" vertex="1" parent="3ID8E0WmiKl0YQW7Nhs1-8">
          <mxGeometry width="30" height="30" as="geometry">
            <mxRectangle width="30" height="30" as="alternateBounds" />
          </mxGeometry>
        </mxCell>
        <mxCell id="3ID8E0WmiKl0YQW7Nhs1-10" value="Mô tả bộ từ&amp;nbsp;" style="shape=partialRectangle;connectable=0;fillColor=none;top=0;left=0;bottom=0;right=0;align=left;spacingLeft=6;overflow=hidden;whiteSpace=wrap;html=1;" vertex="1" parent="3ID8E0WmiKl0YQW7Nhs1-8">
          <mxGeometry x="30" width="150" height="30" as="geometry">
            <mxRectangle width="150" height="30" as="alternateBounds" />
          </mxGeometry>
        </mxCell>
        <mxCell id="3ID8E0WmiKl0YQW7Nhs1-11" value="" style="shape=tableRow;horizontal=0;startSize=0;swimlaneHead=0;swimlaneBody=0;fillColor=none;collapsible=0;dropTarget=0;points=[[0,0.5],[1,0.5]];portConstraint=eastwest;top=0;left=0;right=0;bottom=0;" vertex="1" parent="3ID8E0WmiKl0YQW7Nhs1-1">
          <mxGeometry y="120" width="180" height="30" as="geometry" />
        </mxCell>
        <mxCell id="3ID8E0WmiKl0YQW7Nhs1-12" value="" style="shape=partialRectangle;connectable=0;fillColor=none;top=0;left=0;bottom=0;right=0;editable=1;overflow=hidden;whiteSpace=wrap;html=1;" vertex="1" parent="3ID8E0WmiKl0YQW7Nhs1-11">
          <mxGeometry width="30" height="30" as="geometry">
            <mxRectangle width="30" height="30" as="alternateBounds" />
          </mxGeometry>
        </mxCell>
        <mxCell id="3ID8E0WmiKl0YQW7Nhs1-13" value="Thời gian tạo bộ từ&amp;nbsp;" style="shape=partialRectangle;connectable=0;fillColor=none;top=0;left=0;bottom=0;right=0;align=left;spacingLeft=6;overflow=hidden;whiteSpace=wrap;html=1;" vertex="1" parent="3ID8E0WmiKl0YQW7Nhs1-11">
          <mxGeometry x="30" width="150" height="30" as="geometry">
            <mxRectangle width="150" height="30" as="alternateBounds" />
          </mxGeometry>
        </mxCell>
        <mxCell id="3ID8E0WmiKl0YQW7Nhs1-14" value="" style="shape=tableRow;horizontal=0;startSize=0;swimlaneHead=0;swimlaneBody=0;fillColor=none;collapsible=0;dropTarget=0;points=[[0,0.5],[1,0.5]];portConstraint=eastwest;top=0;left=0;right=0;bottom=0;" vertex="1" parent="3ID8E0WmiKl0YQW7Nhs1-1">
          <mxGeometry y="150" width="180" height="30" as="geometry" />
        </mxCell>
        <mxCell id="3ID8E0WmiKl0YQW7Nhs1-15" value="" style="shape=partialRectangle;connectable=0;fillColor=none;top=0;left=0;bottom=0;right=0;editable=1;overflow=hidden;whiteSpace=wrap;html=1;" vertex="1" parent="3ID8E0WmiKl0YQW7Nhs1-14">
          <mxGeometry width="30" height="30" as="geometry">
            <mxRectangle width="30" height="30" as="alternateBounds" />
          </mxGeometry>
        </mxCell>
        <mxCell id="3ID8E0WmiKl0YQW7Nhs1-16" value="Số lượng thuật ngữ" style="shape=partialRectangle;connectable=0;fillColor=none;top=0;left=0;bottom=0;right=0;align=left;spacingLeft=6;overflow=hidden;whiteSpace=wrap;html=1;" vertex="1" parent="3ID8E0WmiKl0YQW7Nhs1-14">
          <mxGeometry x="30" width="150" height="30" as="geometry">
            <mxRectangle width="150" height="30" as="alternateBounds" />
          </mxGeometry>
        </mxCell>
        <mxCell id="3ID8E0WmiKl0YQW7Nhs1-17" value="" style="shape=tableRow;horizontal=0;startSize=0;swimlaneHead=0;swimlaneBody=0;fillColor=none;collapsible=0;dropTarget=0;points=[[0,0.5],[1,0.5]];portConstraint=eastwest;top=0;left=0;right=0;bottom=0;" vertex="1" parent="3ID8E0WmiKl0YQW7Nhs1-1">
          <mxGeometry y="180" width="180" height="30" as="geometry" />
        </mxCell>
        <mxCell id="3ID8E0WmiKl0YQW7Nhs1-18" value="" style="shape=partialRectangle;connectable=0;fillColor=none;top=0;left=0;bottom=0;right=0;editable=1;overflow=hidden;whiteSpace=wrap;html=1;" vertex="1" parent="3ID8E0WmiKl0YQW7Nhs1-17">
          <mxGeometry width="30" height="30" as="geometry">
            <mxRectangle width="30" height="30" as="alternateBounds" />
          </mxGeometry>
        </mxCell>
        <mxCell id="3ID8E0WmiKl0YQW7Nhs1-19" value="Trạng thái (PUBLISH / DRAFT)" style="shape=partialRectangle;connectable=0;fillColor=none;top=0;left=0;bottom=0;right=0;align=left;spacingLeft=6;overflow=hidden;whiteSpace=wrap;html=1;" vertex="1" parent="3ID8E0WmiKl0YQW7Nhs1-17">
          <mxGeometry x="30" width="150" height="30" as="geometry">
            <mxRectangle width="150" height="30" as="alternateBounds" />
          </mxGeometry>
        </mxCell>
        <mxCell id="3ID8E0WmiKl0YQW7Nhs1-20" value="Từ" style="shape=table;startSize=30;container=1;collapsible=1;childLayout=tableLayout;fixedRows=1;rowLines=0;fontStyle=1;align=center;resizeLast=1;html=1;" vertex="1" parent="1">
          <mxGeometry x="589" y="192" width="180" height="180" as="geometry" />
        </mxCell>
        <mxCell id="3ID8E0WmiKl0YQW7Nhs1-21" value="" style="shape=tableRow;horizontal=0;startSize=0;swimlaneHead=0;swimlaneBody=0;fillColor=none;collapsible=0;dropTarget=0;points=[[0,0.5],[1,0.5]];portConstraint=eastwest;top=0;left=0;right=0;bottom=1;" vertex="1" parent="3ID8E0WmiKl0YQW7Nhs1-20">
          <mxGeometry y="30" width="180" height="30" as="geometry" />
        </mxCell>
        <mxCell id="3ID8E0WmiKl0YQW7Nhs1-22" value="FK" style="shape=partialRectangle;connectable=0;fillColor=none;top=0;left=0;bottom=0;right=0;fontStyle=1;overflow=hidden;whiteSpace=wrap;html=1;" vertex="1" parent="3ID8E0WmiKl0YQW7Nhs1-21">
          <mxGeometry width="30" height="30" as="geometry">
            <mxRectangle width="30" height="30" as="alternateBounds" />
          </mxGeometry>
        </mxCell>
        <mxCell id="3ID8E0WmiKl0YQW7Nhs1-23" value="UniqueID" style="shape=partialRectangle;connectable=0;fillColor=none;top=0;left=0;bottom=0;right=0;align=left;spacingLeft=6;fontStyle=5;overflow=hidden;whiteSpace=wrap;html=1;" vertex="1" parent="3ID8E0WmiKl0YQW7Nhs1-21">
          <mxGeometry x="30" width="150" height="30" as="geometry">
            <mxRectangle width="150" height="30" as="alternateBounds" />
          </mxGeometry>
        </mxCell>
        <mxCell id="3ID8E0WmiKl0YQW7Nhs1-24" value="" style="shape=tableRow;horizontal=0;startSize=0;swimlaneHead=0;swimlaneBody=0;fillColor=none;collapsible=0;dropTarget=0;points=[[0,0.5],[1,0.5]];portConstraint=eastwest;top=0;left=0;right=0;bottom=0;" vertex="1" parent="3ID8E0WmiKl0YQW7Nhs1-20">
          <mxGeometry y="60" width="180" height="30" as="geometry" />
        </mxCell>
        <mxCell id="3ID8E0WmiKl0YQW7Nhs1-25" value="" style="shape=partialRectangle;connectable=0;fillColor=none;top=0;left=0;bottom=0;right=0;editable=1;overflow=hidden;whiteSpace=wrap;html=1;" vertex="1" parent="3ID8E0WmiKl0YQW7Nhs1-24">
          <mxGeometry width="30" height="30" as="geometry">
            <mxRectangle width="30" height="30" as="alternateBounds" />
          </mxGeometry>
        </mxCell>
        <mxCell id="3ID8E0WmiKl0YQW7Nhs1-26" value="Từ gốc" style="shape=partialRectangle;connectable=0;fillColor=none;top=0;left=0;bottom=0;right=0;align=left;spacingLeft=6;overflow=hidden;whiteSpace=wrap;html=1;" vertex="1" parent="3ID8E0WmiKl0YQW7Nhs1-24">
          <mxGeometry x="30" width="150" height="30" as="geometry">
            <mxRectangle width="150" height="30" as="alternateBounds" />
          </mxGeometry>
        </mxCell>
        <mxCell id="3ID8E0WmiKl0YQW7Nhs1-27" value="" style="shape=tableRow;horizontal=0;startSize=0;swimlaneHead=0;swimlaneBody=0;fillColor=none;collapsible=0;dropTarget=0;points=[[0,0.5],[1,0.5]];portConstraint=eastwest;top=0;left=0;right=0;bottom=0;" vertex="1" parent="3ID8E0WmiKl0YQW7Nhs1-20">
          <mxGeometry y="90" width="180" height="30" as="geometry" />
        </mxCell>
        <mxCell id="3ID8E0WmiKl0YQW7Nhs1-28" value="" style="shape=partialRectangle;connectable=0;fillColor=none;top=0;left=0;bottom=0;right=0;editable=1;overflow=hidden;whiteSpace=wrap;html=1;" vertex="1" parent="3ID8E0WmiKl0YQW7Nhs1-27">
          <mxGeometry width="30" height="30" as="geometry">
            <mxRectangle width="30" height="30" as="alternateBounds" />
          </mxGeometry>
        </mxCell>
        <mxCell id="3ID8E0WmiKl0YQW7Nhs1-29" value="Từ dịch nghĩa&amp;nbsp;" style="shape=partialRectangle;connectable=0;fillColor=none;top=0;left=0;bottom=0;right=0;align=left;spacingLeft=6;overflow=hidden;whiteSpace=wrap;html=1;" vertex="1" parent="3ID8E0WmiKl0YQW7Nhs1-27">
          <mxGeometry x="30" width="150" height="30" as="geometry">
            <mxRectangle width="150" height="30" as="alternateBounds" />
          </mxGeometry>
        </mxCell>
        <mxCell id="3ID8E0WmiKl0YQW7Nhs1-30" value="" style="shape=tableRow;horizontal=0;startSize=0;swimlaneHead=0;swimlaneBody=0;fillColor=none;collapsible=0;dropTarget=0;points=[[0,0.5],[1,0.5]];portConstraint=eastwest;top=0;left=0;right=0;bottom=0;" vertex="1" parent="3ID8E0WmiKl0YQW7Nhs1-20">
          <mxGeometry y="120" width="180" height="30" as="geometry" />
        </mxCell>
        <mxCell id="3ID8E0WmiKl0YQW7Nhs1-31" value="" style="shape=partialRectangle;connectable=0;fillColor=none;top=0;left=0;bottom=0;right=0;editable=1;overflow=hidden;whiteSpace=wrap;html=1;" vertex="1" parent="3ID8E0WmiKl0YQW7Nhs1-30">
          <mxGeometry width="30" height="30" as="geometry">
            <mxRectangle width="30" height="30" as="alternateBounds" />
          </mxGeometry>
        </mxCell>
        <mxCell id="3ID8E0WmiKl0YQW7Nhs1-32" value="Ngôn ngữ gốc" style="shape=partialRectangle;connectable=0;fillColor=none;top=0;left=0;bottom=0;right=0;align=left;spacingLeft=6;overflow=hidden;whiteSpace=wrap;html=1;" vertex="1" parent="3ID8E0WmiKl0YQW7Nhs1-30">
          <mxGeometry x="30" width="150" height="30" as="geometry">
            <mxRectangle width="150" height="30" as="alternateBounds" />
          </mxGeometry>
        </mxCell>
        <mxCell id="3ID8E0WmiKl0YQW7Nhs1-33" value="" style="shape=tableRow;horizontal=0;startSize=0;swimlaneHead=0;swimlaneBody=0;fillColor=none;collapsible=0;dropTarget=0;points=[[0,0.5],[1,0.5]];portConstraint=eastwest;top=0;left=0;right=0;bottom=0;" vertex="1" parent="3ID8E0WmiKl0YQW7Nhs1-20">
          <mxGeometry y="150" width="180" height="30" as="geometry" />
        </mxCell>
        <mxCell id="3ID8E0WmiKl0YQW7Nhs1-34" value="" style="shape=partialRectangle;connectable=0;fillColor=none;top=0;left=0;bottom=0;right=0;editable=1;overflow=hidden;whiteSpace=wrap;html=1;" vertex="1" parent="3ID8E0WmiKl0YQW7Nhs1-33">
          <mxGeometry width="30" height="30" as="geometry">
            <mxRectangle width="30" height="30" as="alternateBounds" />
          </mxGeometry>
        </mxCell>
        <mxCell id="3ID8E0WmiKl0YQW7Nhs1-35" value="Ngôn ngữ dịch" style="shape=partialRectangle;connectable=0;fillColor=none;top=0;left=0;bottom=0;right=0;align=left;spacingLeft=6;overflow=hidden;whiteSpace=wrap;html=1;" vertex="1" parent="3ID8E0WmiKl0YQW7Nhs1-33">
          <mxGeometry x="30" width="150" height="30" as="geometry">
            <mxRectangle width="150" height="30" as="alternateBounds" />
          </mxGeometry>
        </mxCell>
        <mxCell id="3ID8E0WmiKl0YQW7Nhs1-36" value="" style="edgeStyle=entityRelationEdgeStyle;fontSize=12;html=1;endArrow=ERmany;rounded=0;entryX=0;entryY=0.5;entryDx=0;entryDy=0;" edge="1" parent="1" source="3ID8E0WmiKl0YQW7Nhs1-2" target="3ID8E0WmiKl0YQW7Nhs1-21">
          <mxGeometry width="100" height="100" relative="1" as="geometry">
            <mxPoint x="799" y="562" as="sourcePoint" />
            <mxPoint x="899" y="462" as="targetPoint" />
          </mxGeometry>
        </mxCell>
        <mxCell id="3ID8E0WmiKl0YQW7Nhs1-48" value="" style="shape=tableRow;horizontal=0;startSize=0;swimlaneHead=0;swimlaneBody=0;fillColor=none;collapsible=0;dropTarget=0;points=[[0,0.5],[1,0.5]];portConstraint=eastwest;top=0;left=0;right=0;bottom=0;" vertex="1" parent="1">
          <mxGeometry x="309" y="372" width="180" height="30" as="geometry" />
        </mxCell>
        <mxCell id="3ID8E0WmiKl0YQW7Nhs1-49" value="" style="shape=partialRectangle;connectable=0;fillColor=none;top=0;left=0;bottom=0;right=0;editable=1;overflow=hidden;whiteSpace=wrap;html=1;" vertex="1" parent="3ID8E0WmiKl0YQW7Nhs1-48">
          <mxGeometry width="30" height="30" as="geometry">
            <mxRectangle width="30" height="30" as="alternateBounds" />
          </mxGeometry>
        </mxCell>
        <mxCell id="3ID8E0WmiKl0YQW7Nhs1-50" value="User" style="shape=table;startSize=30;container=1;collapsible=1;childLayout=tableLayout;fixedRows=1;rowLines=0;fontStyle=1;align=center;resizeLast=1;html=1;" vertex="1" parent="1">
          <mxGeometry x="309" y="523" width="180" height="300" as="geometry" />
        </mxCell>
        <mxCell id="3ID8E0WmiKl0YQW7Nhs1-51" value="" style="shape=tableRow;horizontal=0;startSize=0;swimlaneHead=0;swimlaneBody=0;fillColor=none;collapsible=0;dropTarget=0;points=[[0,0.5],[1,0.5]];portConstraint=eastwest;top=0;left=0;right=0;bottom=1;" vertex="1" parent="3ID8E0WmiKl0YQW7Nhs1-50">
          <mxGeometry y="30" width="180" height="30" as="geometry" />
        </mxCell>
        <mxCell id="3ID8E0WmiKl0YQW7Nhs1-52" value="PK" style="shape=partialRectangle;connectable=0;fillColor=none;top=0;left=0;bottom=0;right=0;fontStyle=1;overflow=hidden;whiteSpace=wrap;html=1;" vertex="1" parent="3ID8E0WmiKl0YQW7Nhs1-51">
          <mxGeometry width="30" height="30" as="geometry">
            <mxRectangle width="30" height="30" as="alternateBounds" />
          </mxGeometry>
        </mxCell>
        <mxCell id="3ID8E0WmiKl0YQW7Nhs1-53" value="ID" style="shape=partialRectangle;connectable=0;fillColor=none;top=0;left=0;bottom=0;right=0;align=left;spacingLeft=6;fontStyle=5;overflow=hidden;whiteSpace=wrap;html=1;" vertex="1" parent="3ID8E0WmiKl0YQW7Nhs1-51">
          <mxGeometry x="30" width="150" height="30" as="geometry">
            <mxRectangle width="150" height="30" as="alternateBounds" />
          </mxGeometry>
        </mxCell>
        <mxCell id="3ID8E0WmiKl0YQW7Nhs1-54" value="" style="shape=tableRow;horizontal=0;startSize=0;swimlaneHead=0;swimlaneBody=0;fillColor=none;collapsible=0;dropTarget=0;points=[[0,0.5],[1,0.5]];portConstraint=eastwest;top=0;left=0;right=0;bottom=0;" vertex="1" parent="3ID8E0WmiKl0YQW7Nhs1-50">
          <mxGeometry y="60" width="180" height="30" as="geometry" />
        </mxCell>
        <mxCell id="3ID8E0WmiKl0YQW7Nhs1-55" value="" style="shape=partialRectangle;connectable=0;fillColor=none;top=0;left=0;bottom=0;right=0;editable=1;overflow=hidden;whiteSpace=wrap;html=1;" vertex="1" parent="3ID8E0WmiKl0YQW7Nhs1-54">
          <mxGeometry width="30" height="30" as="geometry">
            <mxRectangle width="30" height="30" as="alternateBounds" />
          </mxGeometry>
        </mxCell>
        <mxCell id="3ID8E0WmiKl0YQW7Nhs1-56" value="Mật khẩu" style="shape=partialRectangle;connectable=0;fillColor=none;top=0;left=0;bottom=0;right=0;align=left;spacingLeft=6;overflow=hidden;whiteSpace=wrap;html=1;" vertex="1" parent="3ID8E0WmiKl0YQW7Nhs1-54">
          <mxGeometry x="30" width="150" height="30" as="geometry">
            <mxRectangle width="150" height="30" as="alternateBounds" />
          </mxGeometry>
        </mxCell>
        <mxCell id="3ID8E0WmiKl0YQW7Nhs1-57" value="" style="shape=tableRow;horizontal=0;startSize=0;swimlaneHead=0;swimlaneBody=0;fillColor=none;collapsible=0;dropTarget=0;points=[[0,0.5],[1,0.5]];portConstraint=eastwest;top=0;left=0;right=0;bottom=0;" vertex="1" parent="3ID8E0WmiKl0YQW7Nhs1-50">
          <mxGeometry y="90" width="180" height="30" as="geometry" />
        </mxCell>
        <mxCell id="3ID8E0WmiKl0YQW7Nhs1-58" value="" style="shape=partialRectangle;connectable=0;fillColor=none;top=0;left=0;bottom=0;right=0;editable=1;overflow=hidden;whiteSpace=wrap;html=1;" vertex="1" parent="3ID8E0WmiKl0YQW7Nhs1-57">
          <mxGeometry width="30" height="30" as="geometry">
            <mxRectangle width="30" height="30" as="alternateBounds" />
          </mxGeometry>
        </mxCell>
        <mxCell id="3ID8E0WmiKl0YQW7Nhs1-59" value="Lần đăng nhập cuối&amp;nbsp;" style="shape=partialRectangle;connectable=0;fillColor=none;top=0;left=0;bottom=0;right=0;align=left;spacingLeft=6;overflow=hidden;whiteSpace=wrap;html=1;" vertex="1" parent="3ID8E0WmiKl0YQW7Nhs1-57">
          <mxGeometry x="30" width="150" height="30" as="geometry">
            <mxRectangle width="150" height="30" as="alternateBounds" />
          </mxGeometry>
        </mxCell>
        <mxCell id="3ID8E0WmiKl0YQW7Nhs1-60" value="" style="shape=tableRow;horizontal=0;startSize=0;swimlaneHead=0;swimlaneBody=0;fillColor=none;collapsible=0;dropTarget=0;points=[[0,0.5],[1,0.5]];portConstraint=eastwest;top=0;left=0;right=0;bottom=0;" vertex="1" parent="3ID8E0WmiKl0YQW7Nhs1-50">
          <mxGeometry y="120" width="180" height="30" as="geometry" />
        </mxCell>
        <mxCell id="3ID8E0WmiKl0YQW7Nhs1-61" value="" style="shape=partialRectangle;connectable=0;fillColor=none;top=0;left=0;bottom=0;right=0;editable=1;overflow=hidden;whiteSpace=wrap;html=1;" vertex="1" parent="3ID8E0WmiKl0YQW7Nhs1-60">
          <mxGeometry width="30" height="30" as="geometry">
            <mxRectangle width="30" height="30" as="alternateBounds" />
          </mxGeometry>
        </mxCell>
        <mxCell id="3ID8E0WmiKl0YQW7Nhs1-62" value="Có phải admin&amp;nbsp;" style="shape=partialRectangle;connectable=0;fillColor=none;top=0;left=0;bottom=0;right=0;align=left;spacingLeft=6;overflow=hidden;whiteSpace=wrap;html=1;" vertex="1" parent="3ID8E0WmiKl0YQW7Nhs1-60">
          <mxGeometry x="30" width="150" height="30" as="geometry">
            <mxRectangle width="150" height="30" as="alternateBounds" />
          </mxGeometry>
        </mxCell>
        <mxCell id="3ID8E0WmiKl0YQW7Nhs1-63" value="" style="shape=tableRow;horizontal=0;startSize=0;swimlaneHead=0;swimlaneBody=0;fillColor=none;collapsible=0;dropTarget=0;points=[[0,0.5],[1,0.5]];portConstraint=eastwest;top=0;left=0;right=0;bottom=0;" vertex="1" parent="3ID8E0WmiKl0YQW7Nhs1-50">
          <mxGeometry y="150" width="180" height="30" as="geometry" />
        </mxCell>
        <mxCell id="3ID8E0WmiKl0YQW7Nhs1-64" value="" style="shape=partialRectangle;connectable=0;fillColor=none;top=0;left=0;bottom=0;right=0;editable=1;overflow=hidden;whiteSpace=wrap;html=1;" vertex="1" parent="3ID8E0WmiKl0YQW7Nhs1-63">
          <mxGeometry width="30" height="30" as="geometry">
            <mxRectangle width="30" height="30" as="alternateBounds" />
          </mxGeometry>
        </mxCell>
        <mxCell id="3ID8E0WmiKl0YQW7Nhs1-65" value="Tên đăng nhập" style="shape=partialRectangle;connectable=0;fillColor=none;top=0;left=0;bottom=0;right=0;align=left;spacingLeft=6;overflow=hidden;whiteSpace=wrap;html=1;" vertex="1" parent="3ID8E0WmiKl0YQW7Nhs1-63">
          <mxGeometry x="30" width="150" height="30" as="geometry">
            <mxRectangle width="150" height="30" as="alternateBounds" />
          </mxGeometry>
        </mxCell>
        <mxCell id="3ID8E0WmiKl0YQW7Nhs1-66" value="" style="shape=tableRow;horizontal=0;startSize=0;swimlaneHead=0;swimlaneBody=0;fillColor=none;collapsible=0;dropTarget=0;points=[[0,0.5],[1,0.5]];portConstraint=eastwest;top=0;left=0;right=0;bottom=0;" vertex="1" parent="3ID8E0WmiKl0YQW7Nhs1-50">
          <mxGeometry y="180" width="180" height="30" as="geometry" />
        </mxCell>
        <mxCell id="3ID8E0WmiKl0YQW7Nhs1-67" value="" style="shape=partialRectangle;connectable=0;fillColor=none;top=0;left=0;bottom=0;right=0;editable=1;overflow=hidden;whiteSpace=wrap;html=1;" vertex="1" parent="3ID8E0WmiKl0YQW7Nhs1-66">
          <mxGeometry width="30" height="30" as="geometry">
            <mxRectangle width="30" height="30" as="alternateBounds" />
          </mxGeometry>
        </mxCell>
        <mxCell id="3ID8E0WmiKl0YQW7Nhs1-68" value="Họ" style="shape=partialRectangle;connectable=0;fillColor=none;top=0;left=0;bottom=0;right=0;align=left;spacingLeft=6;overflow=hidden;whiteSpace=wrap;html=1;" vertex="1" parent="3ID8E0WmiKl0YQW7Nhs1-66">
          <mxGeometry x="30" width="150" height="30" as="geometry">
            <mxRectangle width="150" height="30" as="alternateBounds" />
          </mxGeometry>
        </mxCell>
        <mxCell id="3ID8E0WmiKl0YQW7Nhs1-71" value="" style="shape=tableRow;horizontal=0;startSize=0;swimlaneHead=0;swimlaneBody=0;fillColor=none;collapsible=0;dropTarget=0;points=[[0,0.5],[1,0.5]];portConstraint=eastwest;top=0;left=0;right=0;bottom=0;" vertex="1" parent="3ID8E0WmiKl0YQW7Nhs1-50">
          <mxGeometry y="210" width="180" height="30" as="geometry" />
        </mxCell>
        <mxCell id="3ID8E0WmiKl0YQW7Nhs1-72" value="" style="shape=partialRectangle;connectable=0;fillColor=none;top=0;left=0;bottom=0;right=0;editable=1;overflow=hidden;whiteSpace=wrap;html=1;" vertex="1" parent="3ID8E0WmiKl0YQW7Nhs1-71">
          <mxGeometry width="30" height="30" as="geometry">
            <mxRectangle width="30" height="30" as="alternateBounds" />
          </mxGeometry>
        </mxCell>
        <mxCell id="3ID8E0WmiKl0YQW7Nhs1-73" value="Tên&amp;nbsp;" style="shape=partialRectangle;connectable=0;fillColor=none;top=0;left=0;bottom=0;right=0;align=left;spacingLeft=6;overflow=hidden;whiteSpace=wrap;html=1;" vertex="1" parent="3ID8E0WmiKl0YQW7Nhs1-71">
          <mxGeometry x="30" width="150" height="30" as="geometry">
            <mxRectangle width="150" height="30" as="alternateBounds" />
          </mxGeometry>
        </mxCell>
        <mxCell id="3ID8E0WmiKl0YQW7Nhs1-96" value="" style="shape=tableRow;horizontal=0;startSize=0;swimlaneHead=0;swimlaneBody=0;fillColor=none;collapsible=0;dropTarget=0;points=[[0,0.5],[1,0.5]];portConstraint=eastwest;top=0;left=0;right=0;bottom=0;" vertex="1" parent="3ID8E0WmiKl0YQW7Nhs1-50">
          <mxGeometry y="240" width="180" height="30" as="geometry" />
        </mxCell>
        <mxCell id="3ID8E0WmiKl0YQW7Nhs1-97" value="" style="shape=partialRectangle;connectable=0;fillColor=none;top=0;left=0;bottom=0;right=0;editable=1;overflow=hidden;whiteSpace=wrap;html=1;" vertex="1" parent="3ID8E0WmiKl0YQW7Nhs1-96">
          <mxGeometry width="30" height="30" as="geometry">
            <mxRectangle width="30" height="30" as="alternateBounds" />
          </mxGeometry>
        </mxCell>
        <mxCell id="3ID8E0WmiKl0YQW7Nhs1-98" value="email" style="shape=partialRectangle;connectable=0;fillColor=none;top=0;left=0;bottom=0;right=0;align=left;spacingLeft=6;overflow=hidden;whiteSpace=wrap;html=1;" vertex="1" parent="3ID8E0WmiKl0YQW7Nhs1-96">
          <mxGeometry x="30" width="150" height="30" as="geometry">
            <mxRectangle width="150" height="30" as="alternateBounds" />
          </mxGeometry>
        </mxCell>
        <mxCell id="3ID8E0WmiKl0YQW7Nhs1-99" value="" style="shape=tableRow;horizontal=0;startSize=0;swimlaneHead=0;swimlaneBody=0;fillColor=none;collapsible=0;dropTarget=0;points=[[0,0.5],[1,0.5]];portConstraint=eastwest;top=0;left=0;right=0;bottom=0;" vertex="1" parent="3ID8E0WmiKl0YQW7Nhs1-50">
          <mxGeometry y="270" width="180" height="30" as="geometry" />
        </mxCell>
        <mxCell id="3ID8E0WmiKl0YQW7Nhs1-100" value="" style="shape=partialRectangle;connectable=0;fillColor=none;top=0;left=0;bottom=0;right=0;editable=1;overflow=hidden;whiteSpace=wrap;html=1;" vertex="1" parent="3ID8E0WmiKl0YQW7Nhs1-99">
          <mxGeometry width="30" height="30" as="geometry">
            <mxRectangle width="30" height="30" as="alternateBounds" />
          </mxGeometry>
        </mxCell>
        <mxCell id="3ID8E0WmiKl0YQW7Nhs1-101" value="ngày tham gia" style="shape=partialRectangle;connectable=0;fillColor=none;top=0;left=0;bottom=0;right=0;align=left;spacingLeft=6;overflow=hidden;whiteSpace=wrap;html=1;" vertex="1" parent="3ID8E0WmiKl0YQW7Nhs1-99">
          <mxGeometry x="30" width="150" height="30" as="geometry">
            <mxRectangle width="150" height="30" as="alternateBounds" />
          </mxGeometry>
        </mxCell>
        <mxCell id="3ID8E0WmiKl0YQW7Nhs1-69" value="" style="shape=tableRow;horizontal=0;startSize=0;swimlaneHead=0;swimlaneBody=0;fillColor=none;collapsible=0;dropTarget=0;points=[[0,0.5],[1,0.5]];portConstraint=eastwest;top=0;left=0;right=0;bottom=0;" vertex="1" parent="1">
          <mxGeometry x="309" y="673" width="180" height="30" as="geometry" />
        </mxCell>
        <mxCell id="3ID8E0WmiKl0YQW7Nhs1-70" value="" style="shape=partialRectangle;connectable=0;fillColor=none;top=0;left=0;bottom=0;right=0;editable=1;overflow=hidden;whiteSpace=wrap;html=1;" vertex="1" parent="3ID8E0WmiKl0YQW7Nhs1-69">
          <mxGeometry width="30" height="30" as="geometry">
            <mxRectangle width="30" height="30" as="alternateBounds" />
          </mxGeometry>
        </mxCell>
        <mxCell id="3ID8E0WmiKl0YQW7Nhs1-102" value="Profile" style="shape=table;startSize=30;container=1;collapsible=1;childLayout=tableLayout;fixedRows=1;rowLines=0;fontStyle=1;align=center;resizeLast=1;html=1;" vertex="1" parent="1">
          <mxGeometry x="658" y="473" width="180" height="120" as="geometry" />
        </mxCell>
        <mxCell id="3ID8E0WmiKl0YQW7Nhs1-103" value="" style="shape=tableRow;horizontal=0;startSize=0;swimlaneHead=0;swimlaneBody=0;fillColor=none;collapsible=0;dropTarget=0;points=[[0,0.5],[1,0.5]];portConstraint=eastwest;top=0;left=0;right=0;bottom=1;" vertex="1" parent="3ID8E0WmiKl0YQW7Nhs1-102">
          <mxGeometry y="30" width="180" height="30" as="geometry" />
        </mxCell>
        <mxCell id="3ID8E0WmiKl0YQW7Nhs1-104" value="FK" style="shape=partialRectangle;connectable=0;fillColor=none;top=0;left=0;bottom=0;right=0;fontStyle=1;overflow=hidden;whiteSpace=wrap;html=1;" vertex="1" parent="3ID8E0WmiKl0YQW7Nhs1-103">
          <mxGeometry width="30" height="30" as="geometry">
            <mxRectangle width="30" height="30" as="alternateBounds" />
          </mxGeometry>
        </mxCell>
        <mxCell id="3ID8E0WmiKl0YQW7Nhs1-105" value="ID" style="shape=partialRectangle;connectable=0;fillColor=none;top=0;left=0;bottom=0;right=0;align=left;spacingLeft=6;fontStyle=5;overflow=hidden;whiteSpace=wrap;html=1;" vertex="1" parent="3ID8E0WmiKl0YQW7Nhs1-103">
          <mxGeometry x="30" width="150" height="30" as="geometry">
            <mxRectangle width="150" height="30" as="alternateBounds" />
          </mxGeometry>
        </mxCell>
        <mxCell id="3ID8E0WmiKl0YQW7Nhs1-106" value="" style="shape=tableRow;horizontal=0;startSize=0;swimlaneHead=0;swimlaneBody=0;fillColor=none;collapsible=0;dropTarget=0;points=[[0,0.5],[1,0.5]];portConstraint=eastwest;top=0;left=0;right=0;bottom=0;" vertex="1" parent="3ID8E0WmiKl0YQW7Nhs1-102">
          <mxGeometry y="60" width="180" height="30" as="geometry" />
        </mxCell>
        <mxCell id="3ID8E0WmiKl0YQW7Nhs1-107" value="" style="shape=partialRectangle;connectable=0;fillColor=none;top=0;left=0;bottom=0;right=0;editable=1;overflow=hidden;whiteSpace=wrap;html=1;" vertex="1" parent="3ID8E0WmiKl0YQW7Nhs1-106">
          <mxGeometry width="30" height="30" as="geometry">
            <mxRectangle width="30" height="30" as="alternateBounds" />
          </mxGeometry>
        </mxCell>
        <mxCell id="3ID8E0WmiKl0YQW7Nhs1-108" value="Photo" style="shape=partialRectangle;connectable=0;fillColor=none;top=0;left=0;bottom=0;right=0;align=left;spacingLeft=6;overflow=hidden;whiteSpace=wrap;html=1;" vertex="1" parent="3ID8E0WmiKl0YQW7Nhs1-106">
          <mxGeometry x="30" width="150" height="30" as="geometry">
            <mxRectangle width="150" height="30" as="alternateBounds" />
          </mxGeometry>
        </mxCell>
        <mxCell id="3ID8E0WmiKl0YQW7Nhs1-109" value="" style="shape=tableRow;horizontal=0;startSize=0;swimlaneHead=0;swimlaneBody=0;fillColor=none;collapsible=0;dropTarget=0;points=[[0,0.5],[1,0.5]];portConstraint=eastwest;top=0;left=0;right=0;bottom=0;" vertex="1" parent="3ID8E0WmiKl0YQW7Nhs1-102">
          <mxGeometry y="90" width="180" height="30" as="geometry" />
        </mxCell>
        <mxCell id="3ID8E0WmiKl0YQW7Nhs1-110" value="" style="shape=partialRectangle;connectable=0;fillColor=none;top=0;left=0;bottom=0;right=0;editable=1;overflow=hidden;whiteSpace=wrap;html=1;" vertex="1" parent="3ID8E0WmiKl0YQW7Nhs1-109">
          <mxGeometry width="30" height="30" as="geometry">
            <mxRectangle width="30" height="30" as="alternateBounds" />
          </mxGeometry>
        </mxCell>
        <mxCell id="3ID8E0WmiKl0YQW7Nhs1-111" value="Ngày sinh" style="shape=partialRectangle;connectable=0;fillColor=none;top=0;left=0;bottom=0;right=0;align=left;spacingLeft=6;overflow=hidden;whiteSpace=wrap;html=1;" vertex="1" parent="3ID8E0WmiKl0YQW7Nhs1-109">
          <mxGeometry x="30" width="150" height="30" as="geometry">
            <mxRectangle width="150" height="30" as="alternateBounds" />
          </mxGeometry>
        </mxCell>
        <mxCell id="3ID8E0WmiKl0YQW7Nhs1-130" value="" style="shape=tableRow;horizontal=0;startSize=0;swimlaneHead=0;swimlaneBody=0;fillColor=none;collapsible=0;dropTarget=0;points=[[0,0.5],[1,0.5]];portConstraint=eastwest;top=0;left=0;right=0;bottom=0;" vertex="1" parent="1">
          <mxGeometry x="507" y="650" width="180" height="30" as="geometry" />
        </mxCell>
        <mxCell id="3ID8E0WmiKl0YQW7Nhs1-131" value="" style="shape=partialRectangle;connectable=0;fillColor=none;top=0;left=0;bottom=0;right=0;editable=1;overflow=hidden;whiteSpace=wrap;html=1;" vertex="1" parent="3ID8E0WmiKl0YQW7Nhs1-130">
          <mxGeometry width="30" height="30" as="geometry">
            <mxRectangle width="30" height="30" as="alternateBounds" />
          </mxGeometry>
        </mxCell>
        <mxCell id="3ID8E0WmiKl0YQW7Nhs1-132" value="" style="edgeStyle=entityRelationEdgeStyle;fontSize=12;html=1;endArrow=ERmany;rounded=0;entryX=0;entryY=0.5;entryDx=0;entryDy=0;" edge="1" parent="1" target="3ID8E0WmiKl0YQW7Nhs1-103">
          <mxGeometry width="100" height="100" relative="1" as="geometry">
            <mxPoint x="489" y="568" as="sourcePoint" />
            <mxPoint x="589" y="538" as="targetPoint" />
          </mxGeometry>
        </mxCell>
      </root>
    </mxGraphModel>
  </diagram>
</mxfile>
